G05
M48
;#@! TF.GenerationSoftware,DesignSpark,DesignSpark PCB,11.0.5875
;#@! TF.CreationDate,2024-06-15T10:29:01--5:-30*
;#@! TF.FileFunction,Plated,1,2,PTH
;FILE_FORMAT=3:5
;TYPE=PLATED
INCH,TZ
FMAT,2
T1C000.03200
T2C000.03500
T3C000.03937
T4C000.04000
T5C000.04400
T6C000.04700
T7C000.04724
T8C000.05200
T9C000.13780
%
T001
X17.28228Y16.60256
X17.28228Y16.85118
X17.58228Y16.60256
X17.58228Y16.72638
X17.58228Y16.85118
X17.58228Y16.98268
X17.68228Y16.72638
X17.68228Y16.98268
X17.74094Y16.60256
X17.94843Y17.02205
X18.04094Y16.60256
X18.12717Y16.52756
X18.17717Y16.60256
X18.22717Y16.52756
X18.24843Y17.02205
T002
X18.92520Y17.84252
T003
X17.11260Y19.37795
X17.21260Y19.37795
X17.31260Y19.37795
X17.61378Y19.37795
X17.71378Y19.37795
X17.81378Y19.37795
X17.91378Y19.37795
T004
X17.84843Y16.76929
X17.84843Y16.86929
X17.94843Y16.76929
X17.94843Y16.86929
X18.04843Y16.76929
X18.04843Y16.86929
T005
X18.42598Y16.52756
X18.82598Y16.52756
T006
X19.32087Y18.17717
X19.32087Y18.37402
X19.32165Y17.12323
X19.32165Y17.32008
X19.32165Y17.51693
T007
X16.60945Y17.95079
X16.60945Y18.55079
X16.70945Y17.95079
X16.70945Y18.55079
X16.80945Y17.95079
X16.80945Y18.55079
X16.90945Y17.95079
X16.90945Y18.55079
X17.00945Y17.95079
X17.00945Y18.55079
X17.10945Y17.95079
X17.10945Y18.55079
X17.20945Y17.95079
X17.20945Y18.55079
X17.30945Y17.95079
X17.30945Y18.55079
X17.40945Y17.95079
X17.40945Y18.55079
X17.50945Y17.95079
X17.50945Y18.55079
X17.60945Y17.95079
X17.60945Y18.55079
X17.70945Y17.95079
X17.70945Y18.55079
X17.80945Y17.95079
X17.80945Y18.55079
X17.90945Y17.95079
X17.90945Y18.55079
X18.00945Y17.95079
X18.00945Y18.55079
X18.10945Y17.95079
X18.10945Y18.55079
X18.20945Y17.95079
X18.20945Y18.55079
X18.30945Y17.95079
X18.30945Y18.55079
X18.40945Y17.95079
X18.40945Y18.55079
X18.50945Y17.95079
X18.50945Y18.55079
T008
X18.39098Y16.80343
X18.39098Y17.28343
X18.62598Y16.72343
X18.86098Y16.80343
X18.86098Y17.28343
T009
X16.81890Y16.81890
X16.81890Y19.18110
X19.18110Y16.81890
X19.18110Y19.18110
M30
