G04 DesignSpark PCB Gerber Version 11.0 Build 5877*
%FSLAX35Y35*%
%MOIN*%
%ADD12C,0.00500*%
%ADD96C,0.10000*%
X0Y0D02*
D02*
D12*
X1674070Y1801641D02*
X1673757Y1801329D01*
X1673132Y1801016D01*
X1672195D01*
X1671570Y1801329D01*
X1671257Y1801641D01*
X1670945Y1802266D01*
Y1803516D01*
X1671257Y1804141D01*
X1671570Y1804454D01*
X1672195Y1804766D01*
X1673132D01*
X1673757Y1804454D01*
X1674070Y1804141D01*
Y1861641D02*
X1673757Y1861329D01*
X1673132Y1861016D01*
X1672195D01*
X1671570Y1861329D01*
X1671257Y1861641D01*
X1670945Y1862266D01*
Y1863516D01*
X1671257Y1864141D01*
X1671570Y1864454D01*
X1672195Y1864766D01*
X1673132D01*
X1673757Y1864454D01*
X1674070Y1864141D01*
X1684070Y1801641D02*
X1683757Y1801329D01*
X1683132Y1801016D01*
X1682195D01*
X1681570Y1801329D01*
X1681257Y1801641D01*
X1680945Y1802266D01*
Y1803516D01*
X1681257Y1804141D01*
X1681570Y1804454D01*
X1682195Y1804766D01*
X1683132D01*
X1683757Y1804454D01*
X1684070Y1804141D01*
Y1861641D02*
X1683757Y1861329D01*
X1683132Y1861016D01*
X1682195D01*
X1681570Y1861329D01*
X1681257Y1861641D01*
X1680945Y1862266D01*
Y1863516D01*
X1681257Y1864141D01*
X1681570Y1864454D01*
X1682195Y1864766D01*
X1683132D01*
X1683757Y1864454D01*
X1684070Y1864141D01*
X1694070Y1801641D02*
X1693757Y1801329D01*
X1693132Y1801016D01*
X1692195D01*
X1691570Y1801329D01*
X1691257Y1801641D01*
X1690945Y1802266D01*
Y1803516D01*
X1691257Y1804141D01*
X1691570Y1804454D01*
X1692195Y1804766D01*
X1693132D01*
X1693757Y1804454D01*
X1694070Y1804141D01*
Y1861641D02*
X1693757Y1861329D01*
X1693132Y1861016D01*
X1692195D01*
X1691570Y1861329D01*
X1691257Y1861641D01*
X1690945Y1862266D01*
Y1863516D01*
X1691257Y1864141D01*
X1691570Y1864454D01*
X1692195Y1864766D01*
X1693132D01*
X1693757Y1864454D01*
X1694070Y1864141D01*
X1691890Y1687827D02*
X1693452Y1691577D01*
X1695015Y1687827D01*
X1692515Y1689390D02*
X1694390D01*
X1691890Y1924048D02*
X1693452Y1927798D01*
X1695015Y1924048D01*
X1692515Y1925610D02*
X1694390D01*
X1704070Y1801641D02*
X1703757Y1801329D01*
X1703132Y1801016D01*
X1702195D01*
X1701570Y1801329D01*
X1701257Y1801641D01*
X1700945Y1802266D01*
Y1803516D01*
X1701257Y1804141D01*
X1701570Y1804454D01*
X1702195Y1804766D01*
X1703132D01*
X1703757Y1804454D01*
X1704070Y1804141D01*
Y1861641D02*
X1703757Y1861329D01*
X1703132Y1861016D01*
X1702195D01*
X1701570Y1861329D01*
X1701257Y1861641D01*
X1700945Y1862266D01*
Y1863516D01*
X1701257Y1864141D01*
X1701570Y1864454D01*
X1702195Y1864766D01*
X1703132D01*
X1703757Y1864454D01*
X1704070Y1864141D01*
X1714070Y1801641D02*
X1713757Y1801329D01*
X1713132Y1801016D01*
X1712195D01*
X1711570Y1801329D01*
X1711257Y1801641D01*
X1710945Y1802266D01*
Y1803516D01*
X1711257Y1804141D01*
X1711570Y1804454D01*
X1712195Y1804766D01*
X1713132D01*
X1713757Y1804454D01*
X1714070Y1804141D01*
Y1861641D02*
X1713757Y1861329D01*
X1713132Y1861016D01*
X1712195D01*
X1711570Y1861329D01*
X1711257Y1861641D01*
X1710945Y1862266D01*
Y1863516D01*
X1711257Y1864141D01*
X1711570Y1864454D01*
X1712195Y1864766D01*
X1713132D01*
X1713757Y1864454D01*
X1714070Y1864141D01*
X1724070Y1801641D02*
X1723757Y1801329D01*
X1723132Y1801016D01*
X1722195D01*
X1721570Y1801329D01*
X1721257Y1801641D01*
X1720945Y1802266D01*
Y1803516D01*
X1721257Y1804141D01*
X1721570Y1804454D01*
X1722195Y1804766D01*
X1723132D01*
X1723757Y1804454D01*
X1724070Y1804141D01*
Y1861641D02*
X1723757Y1861329D01*
X1723132Y1861016D01*
X1722195D01*
X1721570Y1861329D01*
X1721257Y1861641D01*
X1720945Y1862266D01*
Y1863516D01*
X1721257Y1864141D01*
X1721570Y1864454D01*
X1722195Y1864766D01*
X1723132D01*
X1723757Y1864454D01*
X1724070Y1864141D01*
X1721260Y1943733D02*
Y1947483D01*
X1723135D01*
X1723760Y1947170D01*
X1724072Y1946858D01*
X1724385Y1946233D01*
Y1944983D01*
X1724072Y1944358D01*
X1723760Y1944045D01*
X1723135Y1943733D01*
X1721260D01*
X1734070Y1801641D02*
X1733757Y1801329D01*
X1733132Y1801016D01*
X1732195D01*
X1731570Y1801329D01*
X1731257Y1801641D01*
X1730945Y1802266D01*
Y1803516D01*
X1731257Y1804141D01*
X1731570Y1804454D01*
X1732195Y1804766D01*
X1733132D01*
X1733757Y1804454D01*
X1734070Y1804141D01*
Y1861641D02*
X1733757Y1861329D01*
X1733132Y1861016D01*
X1732195D01*
X1731570Y1861329D01*
X1731257Y1861641D01*
X1730945Y1862266D01*
Y1863516D01*
X1731257Y1864141D01*
X1731570Y1864454D01*
X1732195Y1864766D01*
X1733132D01*
X1733757Y1864454D01*
X1734070Y1864141D01*
X1731260Y1943733D02*
Y1947483D01*
X1733135D01*
X1733760Y1947170D01*
X1734072Y1946858D01*
X1734385Y1946233D01*
Y1944983D01*
X1734072Y1944358D01*
X1733760Y1944045D01*
X1733135Y1943733D01*
X1731260D01*
X1738228Y1666193D02*
Y1669943D01*
X1741354D01*
X1740728Y1668069D02*
X1738228D01*
Y1666193D02*
X1741354D01*
X1738228Y1691056D02*
Y1694806D01*
X1741354D01*
X1740728Y1692931D02*
X1738228D01*
Y1691056D02*
X1741354D01*
X1744070Y1801641D02*
X1743757Y1801329D01*
X1743132Y1801016D01*
X1742195D01*
X1741570Y1801329D01*
X1741257Y1801641D01*
X1740945Y1802266D01*
Y1803516D01*
X1741257Y1804141D01*
X1741570Y1804454D01*
X1742195Y1804766D01*
X1743132D01*
X1743757Y1804454D01*
X1744070Y1804141D01*
Y1861641D02*
X1743757Y1861329D01*
X1743132Y1861016D01*
X1742195D01*
X1741570Y1861329D01*
X1741257Y1861641D01*
X1740945Y1862266D01*
Y1863516D01*
X1741257Y1864141D01*
X1741570Y1864454D01*
X1742195Y1864766D01*
X1743132D01*
X1743757Y1864454D01*
X1744070Y1864141D01*
X1741260Y1943733D02*
Y1947483D01*
X1743135D01*
X1743760Y1947170D01*
X1744072Y1946858D01*
X1744385Y1946233D01*
Y1944983D01*
X1744072Y1944358D01*
X1743760Y1944045D01*
X1743135Y1943733D01*
X1741260D01*
X1754070Y1801641D02*
X1753757Y1801329D01*
X1753132Y1801016D01*
X1752195D01*
X1751570Y1801329D01*
X1751257Y1801641D01*
X1750945Y1802266D01*
Y1803516D01*
X1751257Y1804141D01*
X1751570Y1804454D01*
X1752195Y1804766D01*
X1753132D01*
X1753757Y1804454D01*
X1754070Y1804141D01*
Y1861641D02*
X1753757Y1861329D01*
X1753132Y1861016D01*
X1752195D01*
X1751570Y1861329D01*
X1751257Y1861641D01*
X1750945Y1862266D01*
Y1863516D01*
X1751257Y1864141D01*
X1751570Y1864454D01*
X1752195Y1864766D01*
X1753132D01*
X1753757Y1864454D01*
X1754070Y1864141D01*
X1764070Y1801641D02*
X1763757Y1801329D01*
X1763132Y1801016D01*
X1762195D01*
X1761570Y1801329D01*
X1761257Y1801641D01*
X1760945Y1802266D01*
Y1803516D01*
X1761257Y1804141D01*
X1761570Y1804454D01*
X1762195Y1804766D01*
X1763132D01*
X1763757Y1804454D01*
X1764070Y1804141D01*
Y1861641D02*
X1763757Y1861329D01*
X1763132Y1861016D01*
X1762195D01*
X1761570Y1861329D01*
X1761257Y1861641D01*
X1760945Y1862266D01*
Y1863516D01*
X1761257Y1864141D01*
X1761570Y1864454D01*
X1762195Y1864766D01*
X1763132D01*
X1763757Y1864454D01*
X1764070Y1864141D01*
X1768228Y1666193D02*
Y1669943D01*
X1771354D01*
X1770728Y1668069D02*
X1768228D01*
Y1666193D02*
X1771354D01*
X1768228Y1678575D02*
Y1682325D01*
X1771354D01*
X1770728Y1680450D02*
X1768228D01*
Y1678575D02*
X1771354D01*
X1768228Y1691056D02*
Y1694806D01*
X1771354D01*
X1770728Y1692931D02*
X1768228D01*
Y1691056D02*
X1771354D01*
X1768228Y1704205D02*
Y1707955D01*
X1771354D01*
X1770728Y1706080D02*
X1768228D01*
Y1704205D02*
X1771354D01*
X1774070Y1801641D02*
X1773757Y1801329D01*
X1773132Y1801016D01*
X1772195D01*
X1771570Y1801329D01*
X1771257Y1801641D01*
X1770945Y1802266D01*
Y1803516D01*
X1771257Y1804141D01*
X1771570Y1804454D01*
X1772195Y1804766D01*
X1773132D01*
X1773757Y1804454D01*
X1774070Y1804141D01*
Y1861641D02*
X1773757Y1861329D01*
X1773132Y1861016D01*
X1772195D01*
X1771570Y1861329D01*
X1771257Y1861641D01*
X1770945Y1862266D01*
Y1863516D01*
X1771257Y1864141D01*
X1771570Y1864454D01*
X1772195Y1864766D01*
X1773132D01*
X1773757Y1864454D01*
X1774070Y1864141D01*
X1771378Y1943733D02*
Y1947483D01*
X1773253D01*
X1773878Y1947170D01*
X1774191Y1946858D01*
X1774503Y1946233D01*
Y1944983D01*
X1774191Y1944358D01*
X1773878Y1944045D01*
X1773253Y1943733D01*
X1771378D01*
X1778228Y1678575D02*
Y1682325D01*
X1781354D01*
X1780728Y1680450D02*
X1778228D01*
Y1678575D02*
X1781354D01*
X1778228Y1704205D02*
Y1707955D01*
X1781354D01*
X1780728Y1706080D02*
X1778228D01*
Y1704205D02*
X1781354D01*
X1784070Y1801641D02*
X1783757Y1801329D01*
X1783132Y1801016D01*
X1782195D01*
X1781570Y1801329D01*
X1781257Y1801641D01*
X1780945Y1802266D01*
Y1803516D01*
X1781257Y1804141D01*
X1781570Y1804454D01*
X1782195Y1804766D01*
X1783132D01*
X1783757Y1804454D01*
X1784070Y1804141D01*
Y1861641D02*
X1783757Y1861329D01*
X1783132Y1861016D01*
X1782195D01*
X1781570Y1861329D01*
X1781257Y1861641D01*
X1780945Y1862266D01*
Y1863516D01*
X1781257Y1864141D01*
X1781570Y1864454D01*
X1782195Y1864766D01*
X1783132D01*
X1783757Y1864454D01*
X1784070Y1864141D01*
X1781378Y1943733D02*
Y1947483D01*
X1783253D01*
X1783878Y1947170D01*
X1784191Y1946858D01*
X1784503Y1946233D01*
Y1944983D01*
X1784191Y1944358D01*
X1783878Y1944045D01*
X1783253Y1943733D01*
X1781378D01*
X1784094Y1666193D02*
Y1669943D01*
X1787220D01*
X1786594Y1668069D02*
X1784094D01*
Y1666193D02*
X1787220D01*
X1794070Y1801641D02*
X1793757Y1801329D01*
X1793132Y1801016D01*
X1792195D01*
X1791570Y1801329D01*
X1791257Y1801641D01*
X1790945Y1802266D01*
Y1803516D01*
X1791257Y1804141D01*
X1791570Y1804454D01*
X1792195Y1804766D01*
X1793132D01*
X1793757Y1804454D01*
X1794070Y1804141D01*
Y1861641D02*
X1793757Y1861329D01*
X1793132Y1861016D01*
X1792195D01*
X1791570Y1861329D01*
X1791257Y1861641D01*
X1790945Y1862266D01*
Y1863516D01*
X1791257Y1864141D01*
X1791570Y1864454D01*
X1792195Y1864766D01*
X1793132D01*
X1793757Y1864454D01*
X1794070Y1864141D01*
X1791378Y1943733D02*
Y1947483D01*
X1793253D01*
X1793878Y1947170D01*
X1794191Y1946858D01*
X1794503Y1946233D01*
Y1944983D01*
X1794191Y1944358D01*
X1793878Y1944045D01*
X1793253Y1943733D01*
X1791378D01*
X1795780Y1682867D02*
X1797030D01*
X1796405D02*
Y1686617D01*
X1795780D02*
X1797030D01*
X1795780Y1692867D02*
X1797030D01*
X1796405D02*
Y1696617D01*
X1795780D02*
X1797030D01*
X1804070Y1801641D02*
X1803757Y1801329D01*
X1803132Y1801016D01*
X1802195D01*
X1801570Y1801329D01*
X1801257Y1801641D01*
X1800945Y1802266D01*
Y1803516D01*
X1801257Y1804141D01*
X1801570Y1804454D01*
X1802195Y1804766D01*
X1803132D01*
X1803757Y1804454D01*
X1804070Y1804141D01*
Y1861641D02*
X1803757Y1861329D01*
X1803132Y1861016D01*
X1802195D01*
X1801570Y1861329D01*
X1801257Y1861641D01*
X1800945Y1862266D01*
Y1863516D01*
X1801257Y1864141D01*
X1801570Y1864454D01*
X1802195Y1864766D01*
X1803132D01*
X1803757Y1864454D01*
X1804070Y1864141D01*
X1801378Y1943733D02*
Y1947483D01*
X1803253D01*
X1803878Y1947170D01*
X1804191Y1946858D01*
X1804503Y1946233D01*
Y1944983D01*
X1804191Y1944358D01*
X1803878Y1944045D01*
X1803253Y1943733D01*
X1801378D01*
X1805780Y1682867D02*
X1807030D01*
X1806405D02*
Y1686617D01*
X1805780D02*
X1807030D01*
X1805780Y1692867D02*
X1807030D01*
X1806405D02*
Y1696617D01*
X1805780D02*
X1807030D01*
X1804843Y1708142D02*
Y1711892D01*
X1807968D01*
X1807343Y1710017D02*
X1804843D01*
Y1708142D02*
X1807968D01*
X1814070Y1801641D02*
X1813757Y1801329D01*
X1813132Y1801016D01*
X1812195D01*
X1811570Y1801329D01*
X1811257Y1801641D01*
X1810945Y1802266D01*
Y1803516D01*
X1811257Y1804141D01*
X1811570Y1804454D01*
X1812195Y1804766D01*
X1813132D01*
X1813757Y1804454D01*
X1814070Y1804141D01*
Y1861641D02*
X1813757Y1861329D01*
X1813132Y1861016D01*
X1812195D01*
X1811570Y1861329D01*
X1811257Y1861641D01*
X1810945Y1862266D01*
Y1863516D01*
X1811257Y1864141D01*
X1811570Y1864454D01*
X1812195Y1864766D01*
X1813132D01*
X1813757Y1864454D01*
X1814070Y1864141D01*
X1814094Y1666193D02*
Y1669943D01*
X1817220D01*
X1816594Y1668069D02*
X1814094D01*
Y1666193D02*
X1817220D01*
X1815780Y1682867D02*
X1817030D01*
X1816405D02*
Y1686617D01*
X1815780D02*
X1817030D01*
X1815780Y1692867D02*
X1817030D01*
X1816405D02*
Y1696617D01*
X1815780D02*
X1817030D01*
X1824070Y1801641D02*
X1823757Y1801329D01*
X1823132Y1801016D01*
X1822195D01*
X1821570Y1801329D01*
X1821257Y1801641D01*
X1820945Y1802266D01*
Y1803516D01*
X1821257Y1804141D01*
X1821570Y1804454D01*
X1822195Y1804766D01*
X1823132D01*
X1823757Y1804454D01*
X1824070Y1804141D01*
Y1861641D02*
X1823757Y1861329D01*
X1823132Y1861016D01*
X1822195D01*
X1821570Y1861329D01*
X1821257Y1861641D01*
X1820945Y1862266D01*
Y1863516D01*
X1821257Y1864141D01*
X1821570Y1864454D01*
X1822195Y1864766D01*
X1823132D01*
X1823757Y1864454D01*
X1824070Y1864141D01*
X1822717Y1658693D02*
Y1662443D01*
X1825842D01*
X1825217Y1660569D02*
X1822717D01*
Y1658693D02*
X1825842D01*
X1827717Y1666193D02*
Y1669943D01*
X1830842D01*
X1830217Y1668069D02*
X1827717D01*
Y1666193D02*
X1830842D01*
X1834070Y1801641D02*
X1833757Y1801329D01*
X1833132Y1801016D01*
X1832195D01*
X1831570Y1801329D01*
X1831257Y1801641D01*
X1830945Y1802266D01*
Y1803516D01*
X1831257Y1804141D01*
X1831570Y1804454D01*
X1832195Y1804766D01*
X1833132D01*
X1833757Y1804454D01*
X1834070Y1804141D01*
Y1861641D02*
X1833757Y1861329D01*
X1833132Y1861016D01*
X1832195D01*
X1831570Y1861329D01*
X1831257Y1861641D01*
X1830945Y1862266D01*
Y1863516D01*
X1831257Y1864141D01*
X1831570Y1864454D01*
X1832195Y1864766D01*
X1833132D01*
X1833757Y1864454D01*
X1834070Y1864141D01*
X1832717Y1658693D02*
Y1662443D01*
X1835842D01*
X1835217Y1660569D02*
X1832717D01*
Y1658693D02*
X1835842D01*
X1834843Y1708142D02*
Y1711892D01*
X1837968D01*
X1837343Y1710017D02*
X1834843D01*
Y1708142D02*
X1837968D01*
X1844070Y1801641D02*
X1843757Y1801329D01*
X1843132Y1801016D01*
X1842195D01*
X1841570Y1801329D01*
X1841257Y1801641D01*
X1840945Y1802266D01*
Y1803516D01*
X1841257Y1804141D01*
X1841570Y1804454D01*
X1842195Y1804766D01*
X1843132D01*
X1843757Y1804454D01*
X1844070Y1804141D01*
Y1861641D02*
X1843757Y1861329D01*
X1843132Y1861016D01*
X1842195D01*
X1841570Y1861329D01*
X1841257Y1861641D01*
X1840945Y1862266D01*
Y1863516D01*
X1841257Y1864141D01*
X1841570Y1864454D01*
X1842195Y1864766D01*
X1843132D01*
X1843757Y1864454D01*
X1844070Y1864141D01*
X1849098Y1686280D02*
Y1690030D01*
Y1688155D02*
X1852224D01*
Y1686280D02*
Y1690030D01*
X1849098Y1734280D02*
Y1738030D01*
Y1736155D02*
X1852224D01*
Y1734280D02*
Y1738030D01*
X1854070Y1801641D02*
X1853757Y1801329D01*
X1853132Y1801016D01*
X1852195D01*
X1851570Y1801329D01*
X1851257Y1801641D01*
X1850945Y1802266D01*
Y1803516D01*
X1851257Y1804141D01*
X1851570Y1804454D01*
X1852195Y1804766D01*
X1853132D01*
X1853757Y1804454D01*
X1854070Y1804141D01*
Y1861641D02*
X1853757Y1861329D01*
X1853132Y1861016D01*
X1852195D01*
X1851570Y1861329D01*
X1851257Y1861641D01*
X1850945Y1862266D01*
Y1863516D01*
X1851257Y1864141D01*
X1851570Y1864454D01*
X1852195Y1864766D01*
X1853132D01*
X1853757Y1864454D01*
X1854070Y1864141D01*
X1852598Y1658693D02*
Y1662443D01*
X1855724D01*
X1855098Y1660569D02*
X1852598D01*
X1864070Y1801641D02*
X1863757Y1801329D01*
X1863132Y1801016D01*
X1862195D01*
X1861570Y1801329D01*
X1861257Y1801641D01*
X1860945Y1802266D01*
Y1803516D01*
X1861257Y1804141D01*
X1861570Y1804454D01*
X1862195Y1804766D01*
X1863132D01*
X1863757Y1804454D01*
X1864070Y1804141D01*
Y1861641D02*
X1863757Y1861329D01*
X1863132Y1861016D01*
X1862195D01*
X1861570Y1861329D01*
X1861257Y1861641D01*
X1860945Y1862266D01*
Y1863516D01*
X1861257Y1864141D01*
X1861570Y1864454D01*
X1862195Y1864766D01*
X1863132D01*
X1863757Y1864454D01*
X1864070Y1864141D01*
X1872598Y1678280D02*
Y1682030D01*
Y1680155D02*
X1875724D01*
Y1678280D02*
Y1682030D01*
X1892598Y1658693D02*
Y1662443D01*
X1895724D01*
X1895098Y1660569D02*
X1892598D01*
X1896098Y1686280D02*
Y1690030D01*
Y1688155D02*
X1899224D01*
Y1686280D02*
Y1690030D01*
X1896098Y1734280D02*
Y1738030D01*
Y1736155D02*
X1899224D01*
Y1734280D02*
Y1738030D01*
X1904707Y1792065D02*
X1905332Y1791752D01*
X1905645Y1791127D01*
X1905332Y1790502D01*
X1904707Y1790189D01*
X1902520D01*
Y1793939D01*
X1904707D01*
X1905332Y1793627D01*
X1905645Y1793002D01*
X1905332Y1792377D01*
X1904707Y1792065D01*
X1902520D01*
X1928110Y1687827D02*
X1929673Y1691577D01*
X1931235Y1687827D01*
X1928735Y1689390D02*
X1930610D01*
X1928110Y1924048D02*
X1929673Y1927798D01*
X1931235Y1924048D01*
X1928735Y1925610D02*
X1930610D01*
X1944274Y1825217D02*
X1945212D01*
Y1824904D01*
X1944899Y1824279D01*
X1944587Y1823967D01*
X1943962Y1823654D01*
X1943337D01*
X1942712Y1823967D01*
X1942399Y1824279D01*
X1942087Y1824904D01*
Y1826154D01*
X1942399Y1826779D01*
X1942712Y1827092D01*
X1943337Y1827404D01*
X1943962D01*
X1944587Y1827092D01*
X1944899Y1826779D01*
X1945212Y1826154D01*
X1944274Y1844902D02*
X1945212D01*
Y1844589D01*
X1944899Y1843964D01*
X1944587Y1843652D01*
X1943962Y1843339D01*
X1943337D01*
X1942712Y1843652D01*
X1942399Y1843964D01*
X1942087Y1844589D01*
Y1845839D01*
X1942399Y1846464D01*
X1942712Y1846777D01*
X1943337Y1847089D01*
X1943962D01*
X1944587Y1846777D01*
X1944899Y1846464D01*
X1945212Y1845839D01*
X1944353Y1719823D02*
X1945291D01*
Y1719510D01*
X1944978Y1718885D01*
X1944665Y1718573D01*
X1944041Y1718260D01*
X1943415D01*
X1942791Y1718573D01*
X1942478Y1718885D01*
X1942165Y1719510D01*
Y1720760D01*
X1942478Y1721385D01*
X1942791Y1721698D01*
X1943415Y1722010D01*
X1944041D01*
X1944665Y1721698D01*
X1944978Y1721385D01*
X1945291Y1720760D01*
X1944353Y1739508D02*
X1945291D01*
Y1739195D01*
X1944978Y1738570D01*
X1944665Y1738258D01*
X1944041Y1737945D01*
X1943415D01*
X1942791Y1738258D01*
X1942478Y1738570D01*
X1942165Y1739195D01*
Y1740445D01*
X1942478Y1741070D01*
X1942791Y1741383D01*
X1943415Y1741695D01*
X1944041D01*
X1944665Y1741383D01*
X1944978Y1741070D01*
X1945291Y1740445D01*
X1944353Y1759193D02*
X1945291D01*
Y1758880D01*
X1944978Y1758256D01*
X1944665Y1757943D01*
X1944041Y1757630D01*
X1943415D01*
X1942791Y1757943D01*
X1942478Y1758256D01*
X1942165Y1758880D01*
Y1760130D01*
X1942478Y1760756D01*
X1942791Y1761068D01*
X1943415Y1761380D01*
X1944041D01*
X1944665Y1761068D01*
X1944978Y1760756D01*
X1945291Y1760130D01*
X1957480Y1658031D02*
Y1941929D01*
G75*
G03*
X1941929Y1957480I-15551J0D01*
G01*
X1658031D01*
G75*
G03*
X1642520Y1941969I0J-15512D01*
G01*
Y1658268D01*
G75*
G03*
X1658268Y1642520I15748J0D01*
G01*
X1941969D01*
G75*
G03*
X1957480Y1658031I0J15512D01*
G01*
D02*
D96*
X1660945Y1795079D03*
Y1855079D03*
X1670945Y1795079D03*
Y1855079D03*
X1680945Y1795079D03*
Y1855079D03*
X1681890Y1681890D03*
Y1918110D03*
X1690945Y1795079D03*
Y1855079D03*
X1700945Y1795079D03*
Y1855079D03*
X1710945Y1795079D03*
Y1855079D03*
X1711260Y1937795D03*
X1720945Y1795079D03*
Y1855079D03*
X1721260Y1937795D03*
X1728228Y1660256D03*
Y1685118D03*
X1730945Y1795079D03*
Y1855079D03*
X1731260Y1937795D03*
X1740945Y1795079D03*
Y1855079D03*
X1750945Y1795079D03*
Y1855079D03*
X1758228Y1660256D03*
Y1672638D03*
Y1685118D03*
Y1698268D03*
X1760945Y1795079D03*
Y1855079D03*
X1761378Y1937795D03*
X1768228Y1672638D03*
Y1698268D03*
X1770945Y1795079D03*
Y1855079D03*
X1771378Y1937795D03*
X1774094Y1660256D03*
X1780945Y1795079D03*
Y1855079D03*
X1781378Y1937795D03*
X1784843Y1676929D03*
Y1686929D03*
X1790945Y1795079D03*
Y1855079D03*
X1791378Y1937795D03*
X1794843Y1676929D03*
Y1686929D03*
Y1702205D03*
X1800945Y1795079D03*
Y1855079D03*
X1804094Y1660256D03*
X1804843Y1676929D03*
Y1686929D03*
X1810945Y1795079D03*
Y1855079D03*
X1812717Y1652756D03*
X1817717Y1660256D03*
X1820945Y1795079D03*
Y1855079D03*
X1822717Y1652756D03*
X1824843Y1702205D03*
X1830945Y1795079D03*
Y1855079D03*
X1839098Y1680343D03*
Y1728343D03*
X1840945Y1795079D03*
Y1855079D03*
X1842598Y1652756D03*
X1850945Y1795079D03*
Y1855079D03*
X1862598Y1672343D03*
X1882598Y1652756D03*
X1886098Y1680343D03*
Y1728343D03*
X1892520Y1784252D03*
X1918110Y1681890D03*
Y1918110D03*
X1932087Y1817717D03*
Y1837402D03*
X1932165Y1712323D03*
Y1732008D03*
Y1751693D03*
X0Y0D02*
M02*
