G04 DesignSpark PCB Gerber Version 11.0 Build 5877*
%FSLAX35Y35*%
%MOIN*%
%AMT24*0 Octagon Pad at angle 0*4,1,8,-0.01077,-0.02600,0.01077,-0.02600,0.02600,-0.01077,0.02600,0.01077,0.01077,0.02600,-0.01077,0.02600,-0.02600,0.01077,-0.02600,-0.01077,-0.01077,-0.02600,0*%
%ADD24T24*%
%AMT73*0 Octagon Pad at angle 0*4,1,8,-0.01243,-0.03000,0.01243,-0.03000,0.03000,-0.01243,0.03000,0.01243,0.01243,0.03000,-0.01243,0.03000,-0.03000,0.01243,-0.03000,-0.01243,-0.01243,-0.03000,0*%
%ADD73T73*%
%ADD23O,0.06299X0.12000*%
%ADD28O,0.07800X0.15600*%
%ADD22R,0.06299X0.12000*%
%ADD72R,0.06000X0.06000*%
%ADD19C,0.00394*%
%ADD12C,0.00500*%
%ADD10C,0.01500*%
%ADD70C,0.02362*%
%ADD71C,0.04724*%
%ADD21C,0.06000*%
%ADD25C,0.06600*%
%ADD86C,0.07874*%
%ADD20C,0.14961*%
%ADD27O,0.14100X0.07050*%
%ADD26R,0.14100X0.07050*%
X0Y0D02*
D02*
D10*
X1758228Y1672638D02*
Y1660256D01*
Y1698268D02*
Y1685118D01*
D02*
D12*
X1957480Y1658031D02*
Y1941929D01*
G75*
G03*
X1941929Y1957480I-15551J0D01*
G01*
X1658031D01*
G75*
G03*
X1642520Y1941969I0J-15512D01*
G01*
Y1658268D01*
G75*
G03*
X1658268Y1642520I15748J0D01*
G01*
X1941969D01*
G75*
G03*
X1957480Y1658031I0J15512D01*
G01*
D02*
D19*
X1665504Y1846881D02*
Y1816652D01*
X1667322Y1814835D01*
X1885626D01*
G75*
G02*
X1888854Y1813499I4J-4559D01*
G01*
X1895743Y1806609D01*
G75*
G02*
X1897079Y1803386I-3224J-3224D01*
G01*
Y1790386D01*
X1940157D01*
G75*
G02*
X1944498Y1788586I0J-6134D01*
G01*
X1953192Y1779892D01*
G75*
G02*
X1953543Y1779510I-4337J-4341D01*
G01*
Y1941772D01*
G75*
G03*
X1941772Y1953543I-11772J0D01*
G01*
X1791248D01*
G75*
G02*
X1791334Y1953460I-3143J-3303D01*
G01*
X1794602Y1950192D01*
G75*
G02*
X1795937Y1946969I-3224J-3224D01*
G01*
Y1945991D01*
X1796725D01*
Y1929598D01*
X1786032D01*
Y1932312D01*
G75*
G02*
X1784756Y1930800I-4654J2632D01*
G01*
Y1924509D01*
X1785691Y1923575D01*
X1818110D01*
G75*
G02*
X1820502Y1922582I0J-3378D01*
G01*
X1823330Y1919754D01*
G75*
G02*
X1824323Y1917362I-2385J-2392D01*
G01*
Y1862073D01*
G75*
G02*
X1825945Y1859822I-3378J-4144D01*
G01*
G75*
G02*
X1835945I5000J-1893D01*
G01*
G75*
G02*
X1845945I5000J-1893D01*
G01*
G75*
G02*
X1856292Y1857928I5000J-1893D01*
G01*
Y1852228D01*
G75*
G02*
X1845945Y1850334I-5346J0D01*
G01*
G75*
G02*
X1835945I-5000J1893D01*
G01*
G75*
G02*
X1825945I-5000J1893D01*
G01*
G75*
G02*
X1815945I-5000J1893D01*
G01*
G75*
G02*
X1805945I-5000J1893D01*
G01*
G75*
G02*
X1795945I-5000J1893D01*
G01*
G75*
G02*
X1785945I-5000J1893D01*
G01*
G75*
G02*
X1775945I-5000J1893D01*
G01*
G75*
G02*
X1765945I-5000J1893D01*
G01*
G75*
G02*
X1755945I-5000J1893D01*
G01*
G75*
G02*
X1745945I-5000J1893D01*
G01*
G75*
G02*
X1735945I-5000J1893D01*
G01*
G75*
G02*
X1725945I-5000J1893D01*
G01*
G75*
G02*
X1715945I-5000J1893D01*
G01*
G75*
G02*
X1705945I-5000J1893D01*
G01*
G75*
G02*
X1695945I-5000J1893D01*
G01*
G75*
G02*
X1685945I-5000J1893D01*
G01*
G75*
G02*
X1675599Y1852228I-5000J1893D01*
G01*
Y1857928D01*
G75*
G02*
X1685945Y1859822I5346J0D01*
G01*
G75*
G02*
X1687567Y1862072I5000J-1893D01*
G01*
Y1893106D01*
G75*
G02*
Y1893109I1014J2D01*
G01*
G75*
G02*
Y1893110I765J0D01*
G01*
G75*
G02*
X1688556Y1895499I3378J0D01*
G01*
X1701115Y1908058D01*
G75*
G02*
X1703508Y1909047I2389J-2389D01*
G01*
X1717144D01*
X1731194Y1923097D01*
G75*
G02*
X1733587Y1924087I2389J-2389D01*
G01*
X1763876D01*
X1768000Y1928210D01*
Y1930800D01*
G75*
G02*
X1766032Y1934944I3378J4144D01*
G01*
Y1940645D01*
G75*
G02*
X1769572Y1945677I5346J0D01*
G01*
X1736607D01*
Y1929598D01*
X1725914D01*
Y1945677D01*
X1713066D01*
G75*
G02*
X1716607Y1940645I-1806J-5032D01*
G01*
Y1934944D01*
G75*
G02*
X1705914I-5346J0D01*
G01*
Y1940645D01*
G75*
G02*
X1709454Y1945677I5346J0D01*
G01*
X1677046D01*
X1665504Y1934135D01*
Y1863275D01*
X1666292D01*
Y1846881D01*
X1665504D01*
X1908433Y1918110D02*
G75*
G02*
X1927787I9677J0D01*
G01*
G75*
G02*
X1908433I-9677J0D01*
G01*
X1935611Y1823440D02*
G75*
G02*
Y1811995I0J-5722D01*
G01*
X1928563D01*
G75*
G02*
Y1823440I0J5722D01*
G01*
X1935611D01*
Y1841121D02*
G75*
G02*
X1939331Y1837401I0J-3720D01*
G01*
G75*
G02*
X1935611Y1833680I-3720J0D01*
G01*
X1928563D01*
G75*
G02*
X1924843Y1837401I0J3720D01*
G01*
G75*
G02*
X1928563Y1841121I3720J0D01*
G01*
X1935611D01*
X1758032Y1940645D02*
G75*
G02*
X1764721I3344J0D01*
G01*
Y1934944D01*
G75*
G02*
X1758032I-3344J0D01*
G01*
Y1940645D01*
X1717914D02*
G75*
G02*
X1724603I3344J0D01*
G01*
Y1934944D01*
G75*
G02*
X1717914I-3344J0D01*
G01*
Y1940645D01*
X1667599Y1857928D02*
G75*
G02*
X1674288I3344J0D01*
G01*
Y1852228D01*
G75*
G02*
X1667599I-3344J0D01*
G01*
Y1857928D01*
X1672213Y1918110D02*
G75*
G02*
X1691567I9677J0D01*
G01*
G75*
G02*
X1672213I-9677J0D01*
G01*
X1665701Y1817718D02*
G36*
X1665701Y1817718D02*
Y1816456D01*
X1667322Y1814835D01*
X1885626D01*
G75*
G02*
X1888854Y1813499I3J-4561D01*
G01*
X1895743Y1806609D01*
G75*
G02*
X1897079Y1803386I-3226J-3225D01*
G01*
Y1790386D01*
X1940157D01*
G75*
G02*
X1944498Y1788586I0J-6133D01*
G01*
X1953192Y1779892D01*
G75*
G02*
X1953346Y1779732I-4501J-4490D01*
G01*
Y1817718D01*
X1941333D01*
G75*
G02*
X1935611Y1811995I-5722J0D01*
G01*
X1928563D01*
G75*
G02*
X1922841Y1817718I0J5722D01*
G01*
X1665701D01*
G37*
Y1837401D02*
G36*
X1665701Y1837401D02*
Y1817718D01*
X1922841D01*
G75*
G02*
X1928563Y1823440I5722J0D01*
G01*
X1935611D01*
G75*
G02*
X1941333Y1817718I0J-5722D01*
G01*
X1953346D01*
Y1837401D01*
X1939331D01*
G75*
G02*
X1935611Y1833680I-3720J0D01*
G01*
X1928563D01*
G75*
G02*
X1924843Y1837401I0J3720D01*
G01*
X1665701D01*
G37*
Y1846881D02*
G36*
X1665701Y1846881D02*
Y1837401D01*
X1924843D01*
G75*
G02*
X1928563Y1841121I3720J0D01*
G01*
X1935611D01*
G75*
G02*
X1939331Y1837401I0J-3720D01*
G01*
X1953346D01*
Y1855078D01*
X1856292D01*
Y1852228D01*
G75*
G02*
X1845945Y1850334I-5346J0D01*
G01*
G75*
G02*
X1835945I-5000J1893D01*
G01*
G75*
G02*
X1825945I-5000J1893D01*
G01*
G75*
G02*
X1815945I-5000J1893D01*
G01*
G75*
G02*
X1805945I-5000J1893D01*
G01*
G75*
G02*
X1795945I-5000J1893D01*
G01*
G75*
G02*
X1785945I-5000J1893D01*
G01*
G75*
G02*
X1775945I-5000J1893D01*
G01*
G75*
G02*
X1765945I-5000J1893D01*
G01*
G75*
G02*
X1755945I-5000J1893D01*
G01*
G75*
G02*
X1745945I-5000J1893D01*
G01*
G75*
G02*
X1735945I-5000J1893D01*
G01*
G75*
G02*
X1725945I-5000J1893D01*
G01*
G75*
G02*
X1715945I-5000J1893D01*
G01*
G75*
G02*
X1705945I-5000J1893D01*
G01*
G75*
G02*
X1695945I-5000J1893D01*
G01*
G75*
G02*
X1685945I-5000J1893D01*
G01*
G75*
G02*
X1675599Y1852228I-5000J1893D01*
G01*
Y1855078D01*
X1674288D01*
Y1852228D01*
G75*
G02*
X1667599I-3344J0D01*
G01*
Y1855078D01*
X1666292D01*
Y1846881D01*
X1665701D01*
G37*
Y1918110D02*
G36*
X1665701Y1918110D02*
Y1863275D01*
X1666292D01*
Y1855078D01*
X1667599D01*
Y1857928D01*
G75*
G02*
X1674288I3344J0D01*
G01*
Y1855078D01*
X1675599D01*
Y1857928D01*
G75*
G02*
X1685945Y1859822I5346J0D01*
G01*
G75*
G02*
X1687567Y1862072I4996J-1891D01*
G01*
Y1893106D01*
Y1893109D01*
Y1893110D01*
G75*
G02*
X1688556Y1895499I3378J0D01*
G01*
X1701115Y1908058D01*
G75*
G02*
X1703508Y1909047I2388J-2387D01*
G01*
X1717144D01*
X1726207Y1918110D01*
X1691567D01*
G75*
G02*
X1672213I-9677J0D01*
G01*
X1665701D01*
G37*
X1824323Y1917362D02*
G36*
X1824323Y1917362D02*
Y1862073D01*
G75*
G02*
X1825945Y1859822I-3377J-4144D01*
G01*
G75*
G02*
X1835945I5000J-1893D01*
G01*
G75*
G02*
X1845945I5000J-1893D01*
G01*
G75*
G02*
X1856292Y1857928I5000J-1893D01*
G01*
Y1855078D01*
X1953346D01*
Y1918110D01*
X1927787D01*
G75*
G02*
X1908433I-9677J0D01*
G01*
X1824239D01*
G75*
G02*
X1824323Y1917362I-3297J-748D01*
G01*
G37*
X1665701Y1934332D02*
G36*
X1665701Y1934332D02*
Y1918110D01*
X1672213D01*
G75*
G02*
X1691567I9677J0D01*
G01*
X1726207D01*
X1731194Y1923097D01*
G75*
G02*
X1733587Y1924087I2388J-2387D01*
G01*
X1763876D01*
X1768000Y1928210D01*
Y1930800D01*
G75*
G02*
X1766032Y1934944I3377J4143D01*
G01*
Y1934944D01*
Y1937794D01*
X1764721D01*
Y1934944D01*
G75*
G02*
X1758032I-3344J0D01*
G01*
Y1937794D01*
X1736607D01*
Y1929598D01*
X1725914D01*
Y1937794D01*
X1724603D01*
Y1934944D01*
G75*
G02*
X1717914I-3344J0D01*
G01*
Y1937794D01*
X1716607D01*
Y1934944D01*
G75*
G02*
X1705914I-5346J0D01*
G01*
Y1937794D01*
X1669163D01*
X1665701Y1934332D01*
G37*
X1784756Y1930800D02*
G36*
X1784756Y1930800D02*
Y1924509D01*
X1785691Y1923575D01*
X1818110D01*
G75*
G02*
X1820502Y1922582I-1J-3381D01*
G01*
X1823330Y1919754D01*
G75*
G02*
X1824239Y1918110I-2388J-2394D01*
G01*
X1908433D01*
G75*
G02*
X1927787I9677J0D01*
G01*
X1953346D01*
Y1937794D01*
X1796725D01*
Y1929598D01*
X1786032D01*
Y1932312D01*
G75*
G02*
X1784756Y1930800I-4647J2627D01*
G01*
G37*
X1677046Y1945677D02*
G36*
X1677046Y1945677D02*
X1669163Y1937794D01*
X1705914D01*
Y1940645D01*
Y1940645D01*
G75*
G02*
X1709454Y1945677I5346J0D01*
G01*
X1677046D01*
G37*
X1716607Y1940645D02*
G36*
X1716607Y1940645D02*
Y1937794D01*
X1717914D01*
Y1940645D01*
G75*
G02*
X1724603I3344J0D01*
G01*
Y1937794D01*
X1725914D01*
Y1945677D01*
X1713066D01*
G75*
G02*
X1716607Y1940645I-1806J-5032D01*
G01*
Y1940645D01*
G37*
X1736607Y1945677D02*
G36*
X1736607Y1945677D02*
Y1937794D01*
X1758032D01*
Y1940645D01*
G75*
G02*
X1764721I3344J0D01*
G01*
Y1937794D01*
X1766032D01*
Y1940645D01*
Y1940645D01*
G75*
G02*
X1769572Y1945677I5346J0D01*
G01*
X1736607D01*
G37*
X1791447Y1953346D02*
G36*
X1791447Y1953346D02*
X1794602Y1950192D01*
G75*
G02*
X1795937Y1946969I-3226J-3225D01*
G01*
Y1945991D01*
X1796725D01*
Y1937794D01*
X1953346D01*
Y1943915D01*
G75*
G03*
X1943915Y1953346I-11575J-2144D01*
G01*
X1791447D01*
G37*
X1821116Y1646457D02*
G75*
G02*
X1820118Y1646850I197J1959D01*
G01*
X1819685Y1647166D01*
X1818937Y1647913D01*
G75*
G02*
X1817441Y1650865I2815J3282D01*
G01*
Y1650866D01*
G75*
G02*
X1817554Y1652388I2177J604D01*
G01*
Y1653636D01*
X1814312Y1656878D01*
X1807499D01*
X1806080Y1655459D01*
X1802109D01*
X1799298Y1658270D01*
Y1662242D01*
X1802109Y1665053D01*
X1806080D01*
X1807499Y1663634D01*
X1814312D01*
X1815731Y1665053D01*
X1817736D01*
X1817764Y1665080D01*
Y1698500D01*
G75*
G02*
Y1698503I1014J2D01*
G01*
G75*
G02*
Y1698504I765J0D01*
G01*
G75*
G02*
X1818753Y1700893I3378J0D01*
G01*
X1820046Y1702185D01*
Y1704191D01*
X1822857Y1707002D01*
X1826828D01*
X1829639Y1704191D01*
Y1700219D01*
X1826828Y1697408D01*
X1824823D01*
X1824520Y1697105D01*
Y1663685D01*
G75*
G02*
Y1663682I-1014J-2D01*
G01*
G75*
G02*
Y1663681I-765J0D01*
G01*
G75*
G02*
X1823530Y1661293I-3378J0D01*
G01*
X1822513Y1660276D01*
Y1658535D01*
X1828615D01*
X1831228Y1661149D01*
Y1686102D01*
G75*
G02*
X1831930Y1687795I2394J0D01*
G01*
X1834489Y1690354D01*
G75*
G02*
X1836183Y1691055I1693J-1693D01*
G01*
X1841849D01*
G75*
G02*
X1843543Y1690354I1J-2394D01*
G01*
X1845944Y1687952D01*
G75*
G02*
X1846646Y1686260I-1693J-1693D01*
G01*
Y1659495D01*
X1848700Y1657441D01*
G75*
G02*
X1849402Y1655748I-1693J-1693D01*
G01*
Y1651063D01*
G75*
G02*
X1848700Y1649370I-2394J0D01*
G01*
X1846496Y1647166D01*
G75*
G02*
X1844802Y1646465I-1693J1693D01*
G01*
X1821576D01*
G75*
G02*
X1821509Y1646457I-263J1952D01*
G01*
X1941811D01*
G75*
G03*
X1953543Y1658189I0J11732D01*
G01*
Y1662104D01*
G75*
G02*
X1953192Y1661722I-4688J3959D01*
G01*
X1939892Y1648422D01*
G75*
G02*
X1935551Y1646622I-4341J4334D01*
G01*
X1882697D01*
G75*
G02*
X1878331Y1657163I-99J6133D01*
G01*
X1879965Y1658796D01*
Y1680343D01*
G75*
G02*
X1880000Y1681004I6133J0D01*
G01*
Y1684243D01*
G75*
G02*
X1892195I6098J0D01*
G01*
Y1681015D01*
G75*
G02*
X1892232Y1680343I-6097J-673D01*
G01*
Y1658890D01*
X1933011D01*
X1942724Y1668604D01*
Y1773011D01*
X1937617Y1778118D01*
X1892520D01*
G75*
G02*
X1887961Y1788356I0J6134D01*
G01*
Y1801497D01*
X1883741Y1805717D01*
X1835504D01*
Y1800722D01*
G75*
G02*
X1836292Y1797928I-4559J-2793D01*
G01*
Y1792228D01*
G75*
G02*
X1825945Y1790334I-5346J0D01*
G01*
G75*
G02*
X1815945I-5000J1893D01*
G01*
G75*
G02*
X1805945I-5000J1893D01*
G01*
G75*
G02*
X1795945I-5000J1893D01*
G01*
G75*
G02*
X1785945I-5000J1893D01*
G01*
G75*
G02*
X1775945I-5000J1893D01*
G01*
G75*
G02*
X1765945I-5000J1893D01*
G01*
G75*
G02*
X1755945I-5000J1893D01*
G01*
G75*
G02*
X1745945I-5000J1893D01*
G01*
G75*
G02*
X1735945I-5000J1893D01*
G01*
G75*
G02*
X1725945I-5000J1893D01*
G01*
G75*
G02*
X1715945I-5000J1893D01*
G01*
G75*
G02*
X1705945I-5000J1893D01*
G01*
G75*
G02*
X1695945I-5000J1893D01*
G01*
G75*
G02*
X1685945I-5000J1893D01*
G01*
G75*
G02*
X1675945I-5000J1893D01*
G01*
G75*
G02*
X1666292Y1789595I-5000J1893D01*
G01*
Y1786881D01*
X1655599D01*
Y1803275D01*
X1666292D01*
Y1800561D01*
G75*
G02*
X1675945Y1799822I4654J-2632D01*
G01*
G75*
G02*
X1685945I5000J-1893D01*
G01*
G75*
G02*
X1695945I5000J-1893D01*
G01*
G75*
G02*
X1705945I5000J-1893D01*
G01*
G75*
G02*
X1715945I5000J-1893D01*
G01*
G75*
G02*
X1725945I5000J-1893D01*
G01*
G75*
G02*
X1735945I5000J-1893D01*
G01*
G75*
G02*
X1745945I5000J-1893D01*
G01*
G75*
G02*
X1755945I5000J-1893D01*
G01*
G75*
G02*
X1765945I5000J-1893D01*
G01*
G75*
G02*
X1775945I5000J-1893D01*
G01*
G75*
G02*
X1785945I5000J-1893D01*
G01*
G75*
G02*
X1795945I5000J-1893D01*
G01*
G75*
G02*
X1805945I5000J-1893D01*
G01*
G75*
G02*
X1815945I5000J-1893D01*
G01*
G75*
G02*
X1825945I5000J-1893D01*
G01*
G75*
G02*
X1826386Y1800720I5000J-1894D01*
G01*
Y1805717D01*
X1665437D01*
G75*
G02*
X1662209Y1807052I-4J4559D01*
G01*
X1657721Y1811540D01*
G75*
G02*
X1656386Y1814764I3224J3224D01*
G01*
Y1846881D01*
X1655599D01*
Y1863275D01*
X1656386D01*
Y1936024D01*
G75*
G02*
X1657721Y1939247I4559J0D01*
G01*
X1671934Y1953460D01*
G75*
G02*
X1672019Y1953543I3228J-3219D01*
G01*
X1658268D01*
G75*
G03*
X1646457Y1941732I0J-11811D01*
G01*
Y1657992D01*
G75*
G03*
X1657992Y1646457I11535J0D01*
G01*
X1821116D01*
X1672213Y1681890D02*
G75*
G02*
X1691567I9677J0D01*
G01*
G75*
G02*
X1672213I-9677J0D01*
G01*
X1730214Y1689915D02*
X1733025Y1687104D01*
Y1683132D01*
X1731606Y1681713D01*
Y1663661D01*
X1733025Y1662242D01*
Y1658270D01*
X1730214Y1655459D01*
X1726243D01*
X1723431Y1658270D01*
Y1662242D01*
X1724850Y1663661D01*
Y1681713D01*
X1723431Y1683132D01*
Y1687104D01*
X1726243Y1689915D01*
X1730214D01*
X1760214Y1677435D02*
X1763025Y1674624D01*
Y1670652D01*
X1761175Y1668802D01*
Y1664092D01*
X1763025Y1662242D01*
Y1658270D01*
X1760214Y1655459D01*
X1756243D01*
X1753431Y1658270D01*
Y1662242D01*
X1755281Y1664092D01*
Y1668802D01*
X1753431Y1670652D01*
Y1674624D01*
X1756243Y1677435D01*
X1760214D01*
Y1703065D02*
X1763025Y1700254D01*
Y1696282D01*
X1761175Y1694432D01*
Y1688954D01*
X1763025Y1687104D01*
Y1683132D01*
X1760214Y1680321D01*
X1756243D01*
X1753431Y1683132D01*
Y1687104D01*
X1755281Y1688954D01*
Y1694432D01*
X1753431Y1696282D01*
Y1700254D01*
X1756243Y1703065D01*
X1760214D01*
X1769385Y1675433D02*
X1771023Y1673794D01*
Y1671481D01*
X1769385Y1669843D01*
X1767072D01*
X1765433Y1671481D01*
Y1673794D01*
X1767072Y1675433D01*
X1769385D01*
X1770214Y1703065D02*
X1773025Y1700254D01*
Y1696282D01*
X1770214Y1693471D01*
X1766243D01*
X1763431Y1696282D01*
Y1700254D01*
X1766243Y1703065D01*
X1770214D01*
X1775251Y1663051D02*
X1776889Y1661413D01*
Y1659099D01*
X1775251Y1657461D01*
X1772938D01*
X1771300Y1659099D01*
Y1661413D01*
X1772938Y1663051D01*
X1775251D01*
X1813873Y1655551D02*
X1815511Y1653913D01*
Y1651599D01*
X1813873Y1649961D01*
X1811560D01*
X1809922Y1651599D01*
Y1653913D01*
X1811560Y1655551D01*
X1813873D01*
X1837599Y1797928D02*
G75*
G02*
X1844288I3344J0D01*
G01*
Y1792228D01*
G75*
G02*
X1837599I-3344J0D01*
G01*
Y1797928D01*
X1845599D02*
G75*
G02*
X1856292I5346J0D01*
G01*
Y1792228D01*
G75*
G02*
X1855504Y1789434I-5346J0D01*
G01*
Y1779094D01*
G75*
G02*
X1854165Y1775867I-4559J0D01*
G01*
X1848504Y1770206D01*
G75*
G02*
X1845276Y1768866I-3228J3220D01*
G01*
X1813148D01*
X1809402Y1765119D01*
Y1692125D01*
X1810040D01*
Y1681731D01*
X1809402D01*
Y1679719D01*
X1810039Y1679081D01*
Y1674778D01*
X1806994Y1671732D01*
X1802691D01*
X1799843Y1674581D01*
X1796994Y1671732D01*
X1792691D01*
X1789843Y1674581D01*
X1786994Y1671732D01*
X1782691D01*
X1779646Y1674778D01*
Y1679081D01*
X1781465Y1680900D01*
Y1682959D01*
X1779646Y1684778D01*
Y1689081D01*
X1782691Y1692126D01*
X1786994D01*
X1789843Y1689278D01*
X1791465Y1690900D01*
Y1698800D01*
X1790046Y1700219D01*
Y1704191D01*
X1792857Y1707002D01*
X1796828D01*
X1799639Y1704191D01*
Y1700219D01*
X1798220Y1698800D01*
Y1690900D01*
X1799646Y1689474D01*
Y1692125D01*
X1800283D01*
Y1767008D01*
G75*
G02*
X1801619Y1770231I4559J0D01*
G01*
X1808036Y1776649D01*
G75*
G02*
X1811264Y1777984I3224J-3224D01*
G01*
X1843387D01*
X1846386Y1780983D01*
Y1789435D01*
G75*
G02*
X1845599Y1792228I4559J2792D01*
G01*
Y1797928D01*
X1908433Y1681890D02*
G75*
G02*
X1927787I9677J0D01*
G01*
G75*
G02*
X1908433I-9677J0D01*
G01*
X1934371Y1718046D02*
X1941414D01*
Y1706602D01*
X1934377D01*
G75*
G02*
X1932165Y1706189I-2211J5721D01*
G01*
X1891925D01*
G75*
G02*
X1887584Y1707989I0J6134D01*
G01*
X1881765Y1713809D01*
G75*
G02*
X1879965Y1718150I4334J4341D01*
G01*
Y1728343D01*
G75*
G02*
X1880000Y1729004I6133J0D01*
G01*
Y1732243D01*
G75*
G02*
X1892195I6098J0D01*
G01*
Y1729015D01*
G75*
G02*
X1892232Y1728343I-6097J-673D01*
G01*
Y1720690D01*
X1894466Y1718457D01*
X1932165D01*
G75*
G02*
X1934371Y1718046I0J-6134D01*
G01*
X1935689Y1737731D02*
G75*
G02*
Y1726287I0J-5722D01*
G01*
X1934377D01*
G75*
G02*
X1932165Y1725874I-2211J5721D01*
G01*
X1908642D01*
G75*
G02*
X1904301Y1727674I0J6134D01*
G01*
X1892519Y1739457D01*
X1872856D01*
X1868929Y1735530D01*
Y1672343D01*
G75*
G02*
X1868695Y1670665I-6134J0D01*
G01*
Y1668444D01*
G75*
G02*
X1856500I-6097J0D01*
G01*
Y1671681D01*
G75*
G02*
Y1673004I6096J662D01*
G01*
Y1676243D01*
G75*
G02*
X1856661Y1677635I6098J0D01*
G01*
Y1738071D01*
G75*
G02*
X1858461Y1742412I6134J0D01*
G01*
X1865974Y1749924D01*
G75*
G02*
X1870315Y1751724I4341J-4334D01*
G01*
X1895059D01*
G75*
G02*
X1899400Y1749924I0J-6134D01*
G01*
X1911182Y1738142D01*
X1932165D01*
G75*
G02*
X1934371Y1737731I0J-6134D01*
G01*
X1935689D01*
Y1757417D02*
G75*
G02*
Y1745972I0J-5722D01*
G01*
X1934377D01*
G75*
G02*
X1932165Y1745559I-2211J5721D01*
G01*
X1909173D01*
G75*
G02*
X1904832Y1747359I0J6134D01*
G01*
X1897774Y1754417D01*
X1857777D01*
X1845232Y1741873D01*
Y1728343D01*
G75*
G02*
X1845195Y1727670I-6134J0D01*
G01*
Y1724444D01*
G75*
G02*
X1833000I-6097J0D01*
G01*
Y1727681D01*
G75*
G02*
X1832965Y1728343I6097J662D01*
G01*
Y1744413D01*
G75*
G02*
X1834765Y1748754I6134J0D01*
G01*
X1850895Y1764885D01*
G75*
G02*
X1855236Y1766685I4341J-4334D01*
G01*
X1900315D01*
G75*
G02*
X1904656Y1764885I0J-6134D01*
G01*
X1911714Y1757827D01*
X1932165D01*
G75*
G02*
X1934371Y1757417I0J-6134D01*
G01*
X1935689D01*
X1647714Y1652756D02*
G36*
X1647714Y1652756D02*
G75*
G03*
X1655870Y1646654I10279J5237D01*
G01*
X1820434D01*
G75*
G02*
X1820118Y1646850I878J1763D01*
G01*
X1819685Y1647166D01*
X1818937Y1647913D01*
G75*
G02*
X1817441Y1650865I2814J3281D01*
G01*
Y1650866D01*
G75*
G02*
X1817359Y1651470I2176J604D01*
G01*
G75*
G02*
X1817554Y1652388I2259J0D01*
G01*
Y1652756D01*
X1815511D01*
Y1651599D01*
X1813873Y1649961D01*
X1811560D01*
X1809922Y1651599D01*
Y1652756D01*
X1647714D01*
G37*
X1846496Y1647166D02*
G36*
X1846496Y1647166D02*
G75*
G02*
X1845735Y1646654I-1692J1691D01*
G01*
X1881970D01*
G75*
G02*
X1876464Y1652756I629J6102D01*
G01*
X1849402D01*
Y1651063D01*
G75*
G02*
X1848700Y1649370I-2393J0D01*
G01*
X1846496Y1647166D01*
G37*
X1939892Y1648422D02*
G36*
X1939892Y1648422D02*
G75*
G02*
X1936172Y1646654I-4341J4333D01*
G01*
X1943951D01*
G75*
G03*
X1952209Y1652756I-2140J11536D01*
G01*
X1944226D01*
X1939892Y1648422D01*
G37*
X1646654Y1660256D02*
G36*
X1646654Y1660256D02*
Y1655870D01*
G75*
G03*
X1647714Y1652756I11340J2122D01*
G01*
X1809922D01*
Y1653913D01*
X1811560Y1655551D01*
X1813873D01*
X1815511Y1653913D01*
Y1652756D01*
X1817554D01*
Y1653636D01*
X1814312Y1656878D01*
X1807499D01*
X1806080Y1655459D01*
X1802109D01*
X1799298Y1658270D01*
Y1660256D01*
X1776889D01*
Y1659099D01*
X1775251Y1657461D01*
X1772938D01*
X1771300Y1659099D01*
Y1660256D01*
X1763025D01*
Y1658270D01*
X1760214Y1655459D01*
X1756243D01*
X1753431Y1658270D01*
Y1660256D01*
X1733025D01*
Y1658270D01*
X1730214Y1655459D01*
X1726243D01*
X1723431Y1658270D01*
Y1660256D01*
X1646654D01*
G37*
X1822513D02*
G36*
X1822513Y1660256D02*
Y1658535D01*
X1828615D01*
X1830335Y1660256D01*
X1822513D01*
G37*
X1846646D02*
G36*
X1846646Y1660256D02*
Y1659495D01*
X1848700Y1657441D01*
G75*
G02*
X1849402Y1655748I-1692J-1693D01*
G01*
Y1652756D01*
X1876464D01*
G75*
G02*
X1878331Y1657163I6135J0D01*
G01*
X1879965Y1658796D01*
Y1660256D01*
X1846646D01*
G37*
X1892232D02*
G36*
X1892232Y1660256D02*
Y1658890D01*
X1933011D01*
X1934377Y1660256D01*
X1892232D01*
G37*
X1951726D02*
G36*
X1951726Y1660256D02*
X1944226Y1652756D01*
X1952209D01*
G75*
G03*
X1953346Y1656049I-10399J5433D01*
G01*
Y1660256D01*
X1951726D01*
G37*
X1646654Y1666447D02*
G36*
X1646654Y1666447D02*
Y1660256D01*
X1723431D01*
Y1662242D01*
X1724850Y1663661D01*
Y1666447D01*
X1646654D01*
G37*
X1731606D02*
G36*
X1731606Y1666447D02*
Y1663661D01*
X1733025Y1662242D01*
Y1660256D01*
X1753431D01*
Y1662242D01*
X1755281Y1664092D01*
Y1666447D01*
X1731606D01*
G37*
X1761175D02*
G36*
X1761175Y1666447D02*
Y1664092D01*
X1763025Y1662242D01*
Y1660256D01*
X1771300D01*
Y1661413D01*
X1772938Y1663051D01*
X1775251D01*
X1776889Y1661413D01*
Y1660256D01*
X1799298D01*
Y1662242D01*
X1802109Y1665053D01*
X1806080D01*
X1807499Y1663634D01*
X1814312D01*
X1815731Y1665053D01*
X1817736D01*
X1817764Y1665080D01*
Y1666447D01*
X1761175D01*
G37*
X1822513Y1660276D02*
G36*
X1822513Y1660276D02*
Y1660256D01*
X1830335D01*
X1831228Y1661149D01*
Y1666447D01*
X1824520D01*
Y1663685D01*
Y1663682D01*
Y1663681D01*
G75*
G02*
X1823530Y1661293I-3378J0D01*
G01*
X1822513Y1660276D01*
G37*
X1846646Y1666447D02*
G36*
X1846646Y1666447D02*
Y1660256D01*
X1879965D01*
Y1666447D01*
X1868359D01*
G75*
G02*
X1856837I-5761J1997D01*
G01*
X1846646D01*
G37*
X1892232D02*
G36*
X1892232Y1666447D02*
Y1660256D01*
X1934377D01*
X1940568Y1666447D01*
X1892232D01*
G37*
X1953192Y1661722D02*
G36*
X1953192Y1661722D02*
X1951726Y1660256D01*
X1953346D01*
Y1661882D01*
G75*
G02*
X1953192Y1661722I-4656J4330D01*
G01*
G37*
X1646654Y1672638D02*
G36*
X1646654Y1672638D02*
Y1666447D01*
X1724850D01*
Y1672638D01*
X1684727D01*
G75*
G02*
X1679053I-2837J9252D01*
G01*
X1646654D01*
G37*
X1731606D02*
G36*
X1731606Y1672638D02*
Y1666447D01*
X1755281D01*
Y1668802D01*
X1753431Y1670652D01*
Y1672638D01*
X1731606D01*
G37*
X1761175Y1668802D02*
G36*
X1761175Y1668802D02*
Y1666447D01*
X1817764D01*
Y1672638D01*
X1807900D01*
X1806994Y1671732D01*
X1802691D01*
X1801785Y1672638D01*
X1797900D01*
X1796994Y1671732D01*
X1792691D01*
X1791785Y1672638D01*
X1787900D01*
X1786994Y1671732D01*
X1782691D01*
X1781785Y1672638D01*
X1771023D01*
Y1671481D01*
X1769385Y1669843D01*
X1767072D01*
X1765433Y1671481D01*
Y1672638D01*
X1763025D01*
Y1670652D01*
X1761175Y1668802D01*
G37*
X1824520Y1672638D02*
G36*
X1824520Y1672638D02*
Y1666447D01*
X1831228D01*
Y1672638D01*
X1824520D01*
G37*
X1846646D02*
G36*
X1846646Y1672638D02*
Y1666447D01*
X1856837D01*
G75*
G02*
X1856500Y1668444I5761J1998D01*
G01*
Y1671681D01*
G75*
G02*
X1856465Y1672343I6095J662D01*
G01*
G75*
G02*
X1856472Y1672638I6132J0D01*
G01*
X1846646D01*
G37*
X1868695Y1668444D02*
G36*
X1868695Y1668444D02*
G75*
G02*
X1868359Y1666447I-6098J1D01*
G01*
X1879965D01*
Y1672638D01*
X1868929D01*
Y1672343D01*
G75*
G02*
Y1672341I-6767J0D01*
G01*
G75*
G02*
X1868695Y1670665I-6126J0D01*
G01*
Y1668444D01*
G37*
X1892232Y1672638D02*
G36*
X1892232Y1672638D02*
Y1666447D01*
X1940568D01*
X1942724Y1668604D01*
Y1672638D01*
X1920947D01*
G75*
G02*
X1915273I-2837J9252D01*
G01*
X1892232D01*
G37*
X1646654Y1681890D02*
G36*
X1646654Y1681890D02*
Y1672638D01*
X1679053D01*
G75*
G02*
X1672213Y1681890I2837J9252D01*
G01*
X1646654D01*
G37*
X1691567D02*
G36*
X1691567Y1681890D02*
G75*
G02*
X1684727Y1672638I-9677J0D01*
G01*
X1724850D01*
Y1681713D01*
X1724674Y1681890D01*
X1691567D01*
G37*
X1731606Y1681713D02*
G36*
X1731606Y1681713D02*
Y1672638D01*
X1753431D01*
Y1674624D01*
X1756243Y1677435D01*
X1760214D01*
X1763025Y1674624D01*
Y1672638D01*
X1765433D01*
Y1673794D01*
X1767072Y1675433D01*
X1769385D01*
X1771023Y1673794D01*
Y1672638D01*
X1781785D01*
X1779646Y1674778D01*
Y1679081D01*
X1781465Y1680900D01*
Y1681890D01*
X1761783D01*
X1760214Y1680321D01*
X1756243D01*
X1754674Y1681890D01*
X1731783D01*
X1731606Y1681713D01*
G37*
X1789843Y1674581D02*
G36*
X1789843Y1674581D02*
X1787900Y1672638D01*
X1791785D01*
X1789843Y1674581D01*
G37*
X1799843D02*
G36*
X1799843Y1674581D02*
X1797900Y1672638D01*
X1801785D01*
X1799843Y1674581D01*
G37*
X1809402Y1681731D02*
G36*
X1809402Y1681731D02*
Y1679719D01*
X1810039Y1679081D01*
Y1674778D01*
X1807900Y1672638D01*
X1817764D01*
Y1681890D01*
X1810040D01*
Y1681731D01*
X1809402D01*
G37*
X1824520Y1681890D02*
G36*
X1824520Y1681890D02*
Y1672638D01*
X1831228D01*
Y1681890D01*
X1824520D01*
G37*
X1846646D02*
G36*
X1846646Y1681890D02*
Y1672638D01*
X1856472D01*
G75*
G02*
X1856500Y1673004I6124J-296D01*
G01*
Y1676243D01*
G75*
G02*
X1856661Y1677635I6121J-3D01*
G01*
Y1681890D01*
X1846646D01*
G37*
X1868929D02*
G36*
X1868929Y1681890D02*
Y1672638D01*
X1879965D01*
Y1680343D01*
G75*
G02*
X1880000Y1681004I6191J-3D01*
G01*
Y1681890D01*
X1868929D01*
G37*
X1892195D02*
G36*
X1892195Y1681890D02*
Y1681015D01*
G75*
G02*
X1892232Y1680343I-6224J-680D01*
G01*
Y1672638D01*
X1915273D01*
G75*
G02*
X1908433Y1681890I2837J9252D01*
G01*
X1892195D01*
G37*
X1927787D02*
G36*
X1927787Y1681890D02*
G75*
G02*
X1920947Y1672638I-9677J0D01*
G01*
X1942724D01*
Y1681890D01*
X1927787D01*
G37*
X1646654Y1698268D02*
G36*
X1646654Y1698268D02*
Y1681890D01*
X1672213D01*
G75*
G02*
X1691567I9677J0D01*
G01*
X1724674D01*
X1723431Y1683132D01*
Y1687104D01*
X1726243Y1689915D01*
X1730214D01*
X1733025Y1687104D01*
Y1683132D01*
X1731783Y1681890D01*
X1754674D01*
X1753431Y1683132D01*
Y1687104D01*
X1755281Y1688954D01*
Y1694432D01*
X1753431Y1696282D01*
Y1698268D01*
X1646654D01*
G37*
X1761175Y1694432D02*
G36*
X1761175Y1694432D02*
Y1688954D01*
X1763025Y1687104D01*
Y1683132D01*
X1761783Y1681890D01*
X1781465D01*
Y1682959D01*
X1779646Y1684778D01*
Y1689081D01*
X1782691Y1692126D01*
X1786994D01*
X1789843Y1689278D01*
X1791465Y1690900D01*
Y1698268D01*
X1773025D01*
Y1696282D01*
X1770214Y1693471D01*
X1766243D01*
X1763431Y1696282D01*
Y1698268D01*
X1763025D01*
Y1696282D01*
X1761175Y1694432D01*
G37*
X1798220Y1698268D02*
G36*
X1798220Y1698268D02*
Y1690900D01*
X1799646Y1689474D01*
Y1692125D01*
X1800283D01*
Y1698268D01*
X1798220D01*
G37*
X1809402D02*
G36*
X1809402Y1698268D02*
Y1692125D01*
X1810040D01*
Y1681890D01*
X1817764D01*
Y1698268D01*
X1809402D01*
G37*
X1824520Y1697105D02*
G36*
X1824520Y1697105D02*
Y1681890D01*
X1831228D01*
Y1686102D01*
G75*
G02*
X1831930Y1687795I2393J0D01*
G01*
X1834489Y1690354D01*
G75*
G02*
X1836183Y1691055I1692J-1691D01*
G01*
X1841849D01*
G75*
G02*
X1843543Y1690354I2J-2393D01*
G01*
X1845944Y1687952D01*
G75*
G02*
X1846646Y1686260I-1692J-1693D01*
G01*
Y1681890D01*
X1856661D01*
Y1698268D01*
X1827688D01*
X1826828Y1697408D01*
X1824823D01*
X1824520Y1697105D01*
G37*
X1868929Y1698268D02*
G36*
X1868929Y1698268D02*
Y1681890D01*
X1880000D01*
Y1684243D01*
Y1684244D01*
G75*
G02*
X1892195I6098J0D01*
G01*
Y1684243D01*
Y1681890D01*
X1908433D01*
G75*
G02*
X1927787I9677J0D01*
G01*
X1942724D01*
Y1698268D01*
X1868929D01*
G37*
X1646654Y1722265D02*
G36*
X1646654Y1722265D02*
Y1698268D01*
X1753431D01*
Y1700254D01*
X1756243Y1703065D01*
X1760214D01*
X1763025Y1700254D01*
Y1698268D01*
X1763431D01*
Y1700254D01*
X1766243Y1703065D01*
X1770214D01*
X1773025Y1700254D01*
Y1698268D01*
X1791465D01*
Y1698800D01*
X1790046Y1700219D01*
Y1704191D01*
X1792857Y1707002D01*
X1796828D01*
X1799639Y1704191D01*
Y1700219D01*
X1798220Y1698800D01*
Y1698268D01*
X1800283D01*
Y1722265D01*
X1646654D01*
G37*
X1809402D02*
G36*
X1809402Y1722265D02*
Y1698268D01*
X1817764D01*
Y1698500D01*
Y1698503D01*
Y1698504D01*
G75*
G02*
X1818753Y1700893I3378J0D01*
G01*
X1820046Y1702185D01*
Y1704191D01*
X1822857Y1707002D01*
X1826828D01*
X1829639Y1704191D01*
Y1700219D01*
X1827688Y1698268D01*
X1856661D01*
Y1722265D01*
X1844793D01*
G75*
G02*
X1833403I-5694J2180D01*
G01*
X1809402D01*
G37*
X1868929D02*
G36*
X1868929Y1722265D02*
Y1698268D01*
X1942724D01*
Y1722265D01*
X1892232D01*
Y1720690D01*
X1894466Y1718457D01*
X1932165D01*
G75*
G02*
X1934371Y1718046I-1J-6141D01*
G01*
X1941414D01*
Y1706602D01*
X1934377D01*
G75*
G02*
X1932165Y1706189I-2210J5715D01*
G01*
X1891925D01*
G75*
G02*
X1887584Y1707989I0J6133D01*
G01*
X1881765Y1713809D01*
G75*
G02*
X1879965Y1718149I4333J4341D01*
G01*
Y1718150D01*
Y1722265D01*
X1868929D01*
G37*
X1646654Y1795078D02*
G36*
X1646654Y1795078D02*
Y1722265D01*
X1800283D01*
Y1767008D01*
G75*
G02*
X1801619Y1770231I4561J-1D01*
G01*
X1808036Y1776649D01*
G75*
G02*
X1811264Y1777984I3225J-3226D01*
G01*
X1843387D01*
X1846386Y1780983D01*
Y1789435D01*
G75*
G02*
X1845599Y1792227I4557J2791D01*
G01*
G75*
G02*
Y1792228I6445J0D01*
G01*
Y1795078D01*
X1844288D01*
Y1792228D01*
G75*
G02*
X1837599I-3344J0D01*
G01*
Y1795078D01*
X1836292D01*
Y1792228D01*
G75*
G02*
X1825945Y1790334I-5346J0D01*
G01*
G75*
G02*
X1815945I-5000J1893D01*
G01*
G75*
G02*
X1805945I-5000J1893D01*
G01*
G75*
G02*
X1795945I-5000J1893D01*
G01*
G75*
G02*
X1785945I-5000J1893D01*
G01*
G75*
G02*
X1775945I-5000J1893D01*
G01*
G75*
G02*
X1765945I-5000J1893D01*
G01*
G75*
G02*
X1755945I-5000J1893D01*
G01*
G75*
G02*
X1745945I-5000J1893D01*
G01*
G75*
G02*
X1735945I-5000J1893D01*
G01*
G75*
G02*
X1725945I-5000J1893D01*
G01*
G75*
G02*
X1715945I-5000J1893D01*
G01*
G75*
G02*
X1705945I-5000J1893D01*
G01*
G75*
G02*
X1695945I-5000J1893D01*
G01*
G75*
G02*
X1685945I-5000J1893D01*
G01*
G75*
G02*
X1675945I-5000J1893D01*
G01*
G75*
G02*
X1666292Y1789595I-5000J1894D01*
G01*
Y1786881D01*
X1655599D01*
Y1795078D01*
X1646654D01*
G37*
X1809402Y1765119D02*
G36*
X1809402Y1765119D02*
Y1722265D01*
X1833403D01*
G75*
G02*
X1833000Y1724444I5695J2180D01*
G01*
Y1727681D01*
G75*
G02*
X1832965Y1728343I6155J665D01*
G01*
Y1744413D01*
Y1744414D01*
G75*
G02*
X1834765Y1748754I6133J0D01*
G01*
X1850895Y1764885D01*
G75*
G02*
X1855236Y1766685I4341J-4333D01*
G01*
X1900315D01*
G75*
G02*
X1904656Y1764885I0J-6133D01*
G01*
X1911714Y1757827D01*
X1932165D01*
G75*
G02*
X1934371Y1757417I-1J-6141D01*
G01*
X1935689D01*
G75*
G02*
X1941412Y1751694I0J-5722D01*
G01*
G75*
G02*
X1935689Y1745972I-5722J0D01*
G01*
X1934377D01*
G75*
G02*
X1932165Y1745559I-2210J5715D01*
G01*
X1909173D01*
G75*
G02*
X1904832Y1747359I0J6133D01*
G01*
X1897774Y1754417D01*
X1857777D01*
X1845232Y1741873D01*
Y1728343D01*
G75*
G02*
X1845195Y1727670I-6261J7D01*
G01*
Y1724444D01*
G75*
G02*
X1844793Y1722265I-6098J0D01*
G01*
X1856661D01*
Y1738071D01*
Y1738071D01*
G75*
G02*
X1858461Y1742412I6133J0D01*
G01*
X1865974Y1749924D01*
G75*
G02*
X1870315Y1751724I4341J-4333D01*
G01*
X1895059D01*
G75*
G02*
X1899400Y1749924I0J-6133D01*
G01*
X1911182Y1738142D01*
X1932165D01*
G75*
G02*
X1934371Y1737731I-1J-6141D01*
G01*
X1935689D01*
G75*
G02*
X1941412Y1732009I0J-5722D01*
G01*
G75*
G02*
X1935689Y1726287I-5722J0D01*
G01*
X1934377D01*
G75*
G02*
X1932165Y1725874I-2210J5715D01*
G01*
X1908642D01*
G75*
G02*
X1904301Y1727674I0J6133D01*
G01*
X1892519Y1739457D01*
X1872856D01*
X1868929Y1735530D01*
Y1722265D01*
X1879965D01*
Y1728343D01*
G75*
G02*
X1880000Y1729004I6191J-3D01*
G01*
Y1732243D01*
Y1732244D01*
G75*
G02*
X1892195I6098J0D01*
G01*
Y1732243D01*
Y1729015D01*
G75*
G02*
X1892232Y1728343I-6224J-680D01*
G01*
Y1722265D01*
X1942724D01*
Y1773011D01*
X1937617Y1778118D01*
X1892520D01*
G75*
G02*
X1886386Y1784252I0J6134D01*
G01*
G75*
G02*
X1887961Y1788356I6134J0D01*
G01*
Y1795078D01*
X1856292D01*
Y1792228D01*
G75*
G02*
X1855504Y1789434I-5348J0D01*
G01*
Y1779094D01*
G75*
G02*
X1854165Y1775867I-4559J0D01*
G01*
X1848504Y1770206D01*
G75*
G02*
X1845276Y1768866I-3228J3220D01*
G01*
X1813148D01*
X1809402Y1765119D01*
G37*
X1646654Y1943880D02*
G36*
X1646654Y1943880D02*
Y1795078D01*
X1655599D01*
Y1803275D01*
X1666292D01*
Y1800561D01*
G75*
G02*
X1675945Y1799822I4654J-2633D01*
G01*
G75*
G02*
X1685945I5000J-1893D01*
G01*
G75*
G02*
X1695945I5000J-1893D01*
G01*
G75*
G02*
X1705945I5000J-1893D01*
G01*
G75*
G02*
X1715945I5000J-1893D01*
G01*
G75*
G02*
X1725945I5000J-1893D01*
G01*
G75*
G02*
X1735945I5000J-1893D01*
G01*
G75*
G02*
X1745945I5000J-1893D01*
G01*
G75*
G02*
X1755945I5000J-1893D01*
G01*
G75*
G02*
X1765945I5000J-1893D01*
G01*
G75*
G02*
X1775945I5000J-1893D01*
G01*
G75*
G02*
X1785945I5000J-1893D01*
G01*
G75*
G02*
X1795945I5000J-1893D01*
G01*
G75*
G02*
X1805945I5000J-1893D01*
G01*
G75*
G02*
X1815945I5000J-1893D01*
G01*
G75*
G02*
X1825945I5000J-1893D01*
G01*
G75*
G02*
X1826386Y1800720I4994J-1891D01*
G01*
Y1805717D01*
X1665437D01*
G75*
G02*
X1662209Y1807052I-3J4561D01*
G01*
X1657721Y1811540D01*
G75*
G02*
X1656386Y1814764I3226J3225D01*
G01*
Y1846881D01*
X1655599D01*
Y1863275D01*
X1656386D01*
Y1936024D01*
G75*
G02*
X1657721Y1939247I4561J-1D01*
G01*
X1671820Y1953346D01*
X1656120D01*
G75*
G03*
X1646654Y1943880I2147J-11614D01*
G01*
G37*
X1835504Y1805717D02*
G36*
X1835504Y1805717D02*
Y1800722D01*
G75*
G02*
X1836292Y1797928I-4560J-2794D01*
G01*
Y1795078D01*
X1837599D01*
Y1797928D01*
G75*
G02*
X1844288I3344J0D01*
G01*
Y1795078D01*
X1845599D01*
Y1797928D01*
G75*
G02*
X1856292I5346J0D01*
G01*
Y1795078D01*
X1887961D01*
Y1801497D01*
X1883741Y1805717D01*
X1835504D01*
G37*
X1822244Y1648858D02*
X1844803D01*
X1847008Y1651063D01*
Y1655748D01*
X1844252Y1658504D01*
Y1686260D01*
X1841850Y1688661D01*
X1836181D01*
X1833622Y1686102D01*
Y1660157D01*
X1829606Y1656142D01*
X1822165D01*
X1819961Y1653937D01*
Y1651142D01*
X1822244Y1648858D01*
G36*
X1822244Y1648858D02*
X1844803D01*
X1847008Y1651063D01*
Y1655748D01*
X1844252Y1658504D01*
Y1686260D01*
X1841850Y1688661D01*
X1836181D01*
X1833622Y1686102D01*
Y1660157D01*
X1829606Y1656142D01*
X1822165D01*
X1819961Y1653937D01*
Y1651142D01*
X1822244Y1648858D01*
G37*
D02*
D70*
X1690945Y1855079D02*
Y1893110D01*
X1703504Y1905669D01*
X1718543D01*
X1733583Y1920709D01*
X1765276D01*
X1771378Y1926811D01*
Y1937795D01*
X1728228Y1685118D02*
Y1660256D01*
X1781378Y1937795D02*
Y1923110D01*
X1784291Y1920197D01*
X1818110D01*
X1820945Y1917362D01*
Y1855079D01*
X1784843Y1686929D02*
Y1676929D01*
X1794843D02*
Y1686929D01*
Y1702205D01*
X1804094Y1660256D02*
X1817717D01*
X1824843Y1702205D02*
X1821142Y1698504D01*
Y1663681D01*
X1817717Y1660256D01*
D02*
D71*
X1660945Y1855079D02*
Y1936024D01*
X1675157Y1950236D01*
X1731260D01*
X1670945Y1855079D02*
Y1886378D01*
X1698228Y1913661D01*
X1711535D01*
X1721260Y1923386D01*
Y1937795D01*
X1731260D02*
Y1950236D01*
X1788110D01*
X1791378Y1946969D01*
Y1937795D01*
X1774094Y1660256D02*
Y1666772D01*
X1768228Y1672638D01*
X1804843Y1676929D02*
Y1686929D01*
X1830945Y1795079D02*
Y1810276D01*
X1665433D01*
X1660945Y1814764D01*
Y1855079D01*
X1840945Y1795079D02*
Y1784961D01*
X1837165Y1781181D01*
X1747283D01*
X1743307Y1777205D01*
Y1651850D01*
X1745984Y1649173D01*
X1809134D01*
X1812717Y1652756D01*
X1850945Y1795079D02*
Y1779094D01*
X1845276Y1773425D01*
X1811260D01*
X1804843Y1767008D01*
Y1686929D01*
X1892520Y1784252D02*
Y1803386D01*
X1885630Y1810276D01*
X1830945D01*
D02*
D20*
X1681890Y1681890D03*
Y1918110D03*
X1918110Y1681890D03*
Y1918110D03*
D02*
D21*
X1892520Y1784252D03*
D02*
D22*
X1660945Y1795079D03*
Y1855079D03*
X1731260Y1937795D03*
X1791378D03*
D02*
D23*
X1670945Y1795079D03*
Y1855079D03*
X1680945Y1795079D03*
Y1855079D03*
X1690945Y1795079D03*
Y1855079D03*
X1700945Y1795079D03*
Y1855079D03*
X1710945Y1795079D03*
Y1855079D03*
X1711260Y1937795D03*
X1720945Y1795079D03*
Y1855079D03*
X1721260Y1937795D03*
X1730945Y1795079D03*
Y1855079D03*
X1740945Y1795079D03*
Y1855079D03*
X1750945Y1795079D03*
Y1855079D03*
X1760945Y1795079D03*
Y1855079D03*
X1761378Y1937795D03*
X1770945Y1795079D03*
Y1855079D03*
X1771378Y1937795D03*
X1780945Y1795079D03*
Y1855079D03*
X1781378Y1937795D03*
X1790945Y1795079D03*
Y1855079D03*
X1800945Y1795079D03*
Y1855079D03*
X1810945Y1795079D03*
Y1855079D03*
X1820945Y1795079D03*
Y1855079D03*
X1830945Y1795079D03*
Y1855079D03*
X1840945Y1795079D03*
Y1855079D03*
X1850945Y1795079D03*
Y1855079D03*
D02*
D24*
X1728228Y1660256D03*
Y1685118D03*
X1758228Y1660256D03*
Y1672638D03*
Y1685118D03*
Y1698268D03*
X1768228Y1672638D03*
Y1698268D03*
X1774094Y1660256D03*
X1794843Y1702205D03*
X1804094Y1660256D03*
X1812717Y1652756D03*
X1817717Y1660256D03*
X1822717Y1652756D03*
X1824843Y1702205D03*
D02*
D25*
X1842598Y1652756D03*
X1882598D03*
D02*
D26*
X1932165Y1712323D03*
D02*
D27*
X1932087Y1817717D03*
Y1837402D03*
X1932165Y1732008D03*
Y1751693D03*
D02*
D28*
X1839098Y1680343D03*
Y1728343D03*
X1862598Y1672343D03*
X1886098Y1680343D03*
Y1728343D03*
D02*
D72*
X1804843Y1686929D03*
D02*
D73*
X1784843Y1676929D03*
Y1686929D03*
X1794843Y1676929D03*
Y1686929D03*
X1804843Y1676929D03*
D02*
D86*
X1839098Y1728343D02*
Y1744413D01*
X1855236Y1760551D01*
X1900315D01*
X1909173Y1751693D01*
X1932165D01*
X1862598Y1672343D02*
X1862795D01*
Y1738071D01*
X1870315Y1745591D01*
X1895059D01*
X1908642Y1732008D01*
X1932165D01*
X1886098Y1680343D02*
Y1656256D01*
X1882598Y1652756D01*
X1892520Y1784252D02*
X1940157D01*
X1948858Y1775551D01*
Y1666063D01*
X1935551Y1652756D01*
X1882598D01*
X1932165Y1712323D02*
X1891925D01*
X1886098Y1718150D01*
Y1728343D01*
X0Y0D02*
M02*
