G04 DesignSpark PCB Gerber Version 11.0 Build 5877*
%FSLAX35Y35*%
%MOIN*%
%ADD91C,0.03200*%
%ADD88C,0.03500*%
%ADD90C,0.03937*%
%ADD95C,0.04000*%
%ADD92C,0.04400*%
%ADD93C,0.04700*%
%ADD89C,0.04724*%
%ADD94C,0.05200*%
%ADD87C,0.13780*%
X0Y0D02*
D02*
D87*
X1681890Y1681890D03*
Y1918110D03*
X1918110Y1681890D03*
Y1918110D03*
D02*
D88*
X1892520Y1784252D03*
D02*
D89*
X1660945Y1795079D03*
Y1855079D03*
X1670945Y1795079D03*
Y1855079D03*
X1680945Y1795079D03*
Y1855079D03*
X1690945Y1795079D03*
Y1855079D03*
X1700945Y1795079D03*
Y1855079D03*
X1710945Y1795079D03*
Y1855079D03*
X1720945Y1795079D03*
Y1855079D03*
X1730945Y1795079D03*
Y1855079D03*
X1740945Y1795079D03*
Y1855079D03*
X1750945Y1795079D03*
Y1855079D03*
X1760945Y1795079D03*
Y1855079D03*
X1770945Y1795079D03*
Y1855079D03*
X1780945Y1795079D03*
Y1855079D03*
X1790945Y1795079D03*
Y1855079D03*
X1800945Y1795079D03*
Y1855079D03*
X1810945Y1795079D03*
Y1855079D03*
X1820945Y1795079D03*
Y1855079D03*
X1830945Y1795079D03*
Y1855079D03*
X1840945Y1795079D03*
Y1855079D03*
X1850945Y1795079D03*
Y1855079D03*
D02*
D90*
X1711260Y1937795D03*
X1721260D03*
X1731260D03*
X1761378D03*
X1771378D03*
X1781378D03*
X1791378D03*
D02*
D91*
X1728228Y1660256D03*
Y1685118D03*
X1758228Y1660256D03*
Y1672638D03*
Y1685118D03*
Y1698268D03*
X1768228Y1672638D03*
Y1698268D03*
X1774094Y1660256D03*
X1794843Y1702205D03*
X1804094Y1660256D03*
X1812717Y1652756D03*
X1817717Y1660256D03*
X1822717Y1652756D03*
X1824843Y1702205D03*
D02*
D92*
X1842598Y1652756D03*
X1882598D03*
D02*
D93*
X1932087Y1817717D03*
Y1837402D03*
X1932165Y1712323D03*
Y1732008D03*
Y1751693D03*
D02*
D94*
X1839098Y1680343D03*
Y1728343D03*
X1862598Y1672343D03*
X1886098Y1680343D03*
Y1728343D03*
D02*
D95*
X1784843Y1676929D03*
Y1686929D03*
X1794843Y1676929D03*
Y1686929D03*
X1804843Y1676929D03*
Y1686929D03*
X0Y0D02*
M02*
