G04 DesignSpark PCB Gerber Version 11.0 Build 5877*
%FSLAX35Y35*%
%MOIN*%
%AMT24*0 Octagon Pad at angle 0*4,1,8,-0.01077,-0.02600,0.01077,-0.02600,0.02600,-0.01077,0.02600,0.01077,0.01077,0.02600,-0.01077,0.02600,-0.02600,0.01077,-0.02600,-0.01077,-0.01077,-0.02600,0*%
%ADD24T24*%
%AMT73*0 Octagon Pad at angle 0*4,1,8,-0.01243,-0.03000,0.01243,-0.03000,0.03000,-0.01243,0.03000,0.01243,0.01243,0.03000,-0.01243,0.03000,-0.03000,0.01243,-0.03000,-0.01243,-0.01243,-0.03000,0*%
%ADD73T73*%
%ADD23O,0.06299X0.12000*%
%ADD28O,0.07800X0.15600*%
%ADD22R,0.06299X0.12000*%
%ADD29R,0.11024X0.14961*%
%ADD72R,0.06000X0.06000*%
%ADD19C,0.00394*%
%ADD12C,0.00500*%
%ADD70C,0.02362*%
%ADD71C,0.04724*%
%ADD21C,0.06000*%
%ADD25C,0.06600*%
%ADD20C,0.14961*%
%ADD27O,0.14100X0.07050*%
%ADD26R,0.14100X0.07050*%
X0Y0D02*
D02*
D12*
X1957480Y1658031D02*
Y1941929D01*
G75*
G03*
X1941929Y1957480I-15551J0D01*
G01*
X1658031D01*
G75*
G03*
X1642520Y1941969I0J-15512D01*
G01*
Y1658268D01*
G75*
G03*
X1658268Y1642520I15748J0D01*
G01*
X1941969D01*
G75*
G03*
X1957480Y1658031I0J15512D01*
G01*
D02*
D19*
X1646457Y1657992D02*
G75*
G03*
X1657992Y1646457I11535J0D01*
G01*
X1941811D01*
G75*
G03*
X1953543Y1658189I0J11732D01*
G01*
Y1941772D01*
G75*
G03*
X1941772Y1953543I-11772J0D01*
G01*
X1658268D01*
G75*
G03*
X1646457Y1941732I0J-11811D01*
G01*
Y1657992D01*
X1667599Y1857928D02*
G75*
G02*
X1674288I3344J0D01*
G01*
Y1852228D01*
G75*
G02*
X1667599I-3344J0D01*
G01*
Y1857928D01*
X1672213Y1918110D02*
G75*
G02*
X1691567I9677J0D01*
G01*
G75*
G02*
X1672213I-9677J0D01*
G01*
X1875307Y1772209D02*
Y1835906D01*
G75*
G03*
X1874314Y1838298I-3378J0D01*
G01*
X1869203Y1843409D01*
G75*
G03*
X1866811Y1844402I-2392J-2385D01*
G01*
X1847029D01*
X1844323Y1847108D01*
Y1848083D01*
G75*
G03*
X1845945Y1850334I-3378J4144D01*
G01*
G75*
G03*
X1856292Y1852228I5000J1893D01*
G01*
Y1857928D01*
G75*
G03*
X1845945Y1859822I-5346J0D01*
G01*
G75*
G03*
X1835945I-5000J-1893D01*
G01*
G75*
G03*
X1825945I-5000J-1893D01*
G01*
G75*
G03*
X1815945I-5000J-1893D01*
G01*
G75*
G03*
X1805945I-5000J-1893D01*
G01*
G75*
G03*
X1795945I-5000J-1893D01*
G01*
G75*
G03*
X1785945I-5000J-1893D01*
G01*
G75*
G03*
X1775945I-5000J-1893D01*
G01*
G75*
G03*
X1765945I-5000J-1893D01*
G01*
G75*
G03*
X1755945I-5000J-1893D01*
G01*
G75*
G03*
X1745945I-5000J-1893D01*
G01*
G75*
G03*
X1735945I-5000J-1893D01*
G01*
G75*
G03*
X1725945I-5000J-1893D01*
G01*
G75*
G03*
X1724323Y1862073I-5000J-1893D01*
G01*
Y1913461D01*
G75*
G03*
Y1913464I-1014J2D01*
G01*
G75*
G03*
Y1913465I-765J0D01*
G01*
G75*
G03*
X1723333Y1915853I-3378J0D01*
G01*
X1714638Y1924549D01*
Y1930800D01*
G75*
G03*
X1716607Y1934944I-3378J4144D01*
G01*
Y1940645D01*
G75*
G03*
X1705914I-5346J0D01*
G01*
Y1934944D01*
G75*
G03*
X1707882Y1930800I5346J0D01*
G01*
Y1923154D01*
G75*
G03*
Y1923150I1014J-2D01*
G01*
G75*
G03*
X1708871Y1920761I3378J-1D01*
G01*
X1717567Y1912065D01*
Y1862072D01*
G75*
G03*
X1715945Y1859822I3378J-4144D01*
G01*
G75*
G03*
X1705945I-5000J-1893D01*
G01*
G75*
G03*
X1695945I-5000J-1893D01*
G01*
G75*
G03*
X1685945I-5000J-1893D01*
G01*
G75*
G03*
X1675599Y1857928I-5000J-1893D01*
G01*
Y1852228D01*
G75*
G03*
X1676386Y1849435I5346J0D01*
G01*
Y1827441D01*
G75*
G03*
X1677721Y1824217I4559J0D01*
G01*
X1683666Y1818272D01*
G75*
G03*
X1686894Y1816937I3224J3224D01*
G01*
X1844529D01*
X1846386Y1815080D01*
Y1800720D01*
G75*
G03*
X1845599Y1797928I4559J-2792D01*
G01*
Y1792228D01*
G75*
G03*
X1856292I5346J0D01*
G01*
Y1797928D01*
G75*
G03*
X1855504Y1800722I-5346J0D01*
G01*
Y1816969D01*
G75*
G03*
X1854165Y1820196I-4559J0D01*
G01*
X1849645Y1824716D01*
G75*
G03*
X1846417Y1826055I-3228J-3220D01*
G01*
X1688778D01*
X1685504Y1829330D01*
Y1849434D01*
G75*
G03*
X1685945Y1850334I-4558J2793D01*
G01*
G75*
G03*
X1695945I5000J1893D01*
G01*
G75*
G03*
X1705945I5000J1893D01*
G01*
G75*
G03*
X1715945I5000J1893D01*
G01*
G75*
G03*
X1725945I5000J1893D01*
G01*
G75*
G03*
X1735945I5000J1893D01*
G01*
G75*
G03*
X1745945I5000J1893D01*
G01*
G75*
G03*
X1755945I5000J1893D01*
G01*
G75*
G03*
X1765945I5000J1893D01*
G01*
G75*
G03*
X1775945I5000J1893D01*
G01*
G75*
G03*
X1785945I5000J1893D01*
G01*
G75*
G03*
X1795945I5000J1893D01*
G01*
G75*
G03*
X1805945I5000J1893D01*
G01*
G75*
G03*
X1815945I5000J1893D01*
G01*
G75*
G03*
X1825945I5000J1893D01*
G01*
G75*
G03*
X1835945I5000J1893D01*
G01*
G75*
G03*
X1837567Y1848084I5000J1893D01*
G01*
Y1845713D01*
G75*
G03*
Y1845709I1014J-2D01*
G01*
G75*
G03*
X1838556Y1843320I3378J-1D01*
G01*
X1843241Y1838635D01*
G75*
G03*
X1845634Y1837646I2389J2389D01*
G01*
X1865412D01*
X1868551Y1834506D01*
Y1773604D01*
X1864743Y1769795D01*
X1843823D01*
G75*
G03*
X1841430Y1768806I-4J-3378D01*
G01*
X1826785Y1754160D01*
G75*
G03*
X1825795Y1751772I2389J-2389D01*
G01*
G75*
G03*
Y1751771I765J0D01*
G01*
G75*
G03*
Y1751768I1014J-2D01*
G01*
Y1712620D01*
X1825609Y1712433D01*
X1815787D01*
G75*
G03*
X1813395Y1711440I0J-3378D01*
G01*
X1810568Y1708613D01*
G75*
G03*
X1809575Y1706220I2385J-2392D01*
G01*
Y1692125D01*
X1799646D01*
Y1689474D01*
X1796994Y1692126D01*
X1792691D01*
X1789843Y1689278D01*
X1786994Y1692126D01*
X1782691D01*
X1779646Y1689081D01*
Y1684778D01*
X1782494Y1681929D01*
X1779646Y1679081D01*
Y1678084D01*
X1771606Y1686124D01*
Y1694863D01*
X1773025Y1696282D01*
Y1700254D01*
X1770214Y1703065D01*
X1766243D01*
X1763431Y1700254D01*
Y1696282D01*
X1764850Y1694863D01*
Y1684728D01*
G75*
G03*
Y1684725I1014J-2D01*
G01*
G75*
G03*
Y1684724I765J0D01*
G01*
G75*
G03*
X1765840Y1682336I3378J0D01*
G01*
X1784501Y1663674D01*
G75*
G03*
X1786894Y1662685I2389J2389D01*
G01*
X1799741D01*
X1799298Y1662242D01*
Y1658270D01*
X1802109Y1655459D01*
X1806080D01*
X1808891Y1658270D01*
Y1662242D01*
X1808448Y1662685D01*
X1813189D01*
G75*
G03*
X1813368Y1662690I0J3378D01*
G01*
X1812920Y1662242D01*
Y1658270D01*
X1817568Y1653622D01*
Y1651269D01*
X1817598Y1651299D01*
X1818139Y1650551D01*
X1820731Y1647959D01*
X1824702D01*
X1827513Y1650770D01*
Y1652776D01*
X1827936Y1653198D01*
G75*
G03*
X1828929Y1655591I-2385J2392D01*
G01*
Y1666417D01*
G75*
G03*
X1827936Y1668809I-3378J0D01*
G01*
X1826054Y1670692D01*
G75*
G03*
X1823661Y1671685I-2392J-2385D01*
G01*
X1816068D01*
G75*
G03*
X1816331Y1672992I-3115J1307D01*
G01*
G75*
G03*
Y1672993I-765J0D01*
G01*
G75*
G03*
Y1672996I-1014J2D01*
G01*
Y1704821D01*
X1817187Y1705677D01*
X1821532D01*
X1820046Y1704191D01*
Y1700219D01*
X1822857Y1697408D01*
X1826828D01*
X1829639Y1700219D01*
Y1704191D01*
X1828003Y1705827D01*
G75*
G03*
X1829396Y1706667I-995J3228D01*
G01*
X1831562Y1708832D01*
G75*
G03*
X1832551Y1711220I-2389J2389D01*
G01*
G75*
G03*
Y1711221I-765J0D01*
G01*
G75*
G03*
Y1711224I-1014J2D01*
G01*
Y1750372D01*
X1845218Y1763039D01*
X1866138D01*
G75*
G03*
X1868530Y1764029I4J3378D01*
G01*
X1874318Y1769816D01*
G75*
G03*
X1875307Y1772205I-2389J2389D01*
G01*
G75*
G03*
Y1772206I-765J0D01*
G01*
G75*
G03*
Y1772209I-1014J2D01*
G01*
X1856500Y1676243D02*
G75*
G02*
X1868695I6098J0D01*
G01*
Y1668444D01*
G75*
G02*
X1856500I-6097J0D01*
G01*
Y1676243D01*
X1833000Y1684243D02*
G75*
G02*
X1845195I6098J0D01*
G01*
Y1676444D01*
G75*
G02*
X1833000I-6097J0D01*
G01*
Y1684243D01*
X1837102Y1652756D02*
G75*
G02*
X1848095I5497J0D01*
G01*
G75*
G02*
X1837102I-5497J0D01*
G01*
X1833000Y1732243D02*
G75*
G02*
X1845195I6098J0D01*
G01*
Y1724444D01*
G75*
G02*
X1833000I-6097J0D01*
G01*
Y1732243D01*
X1813873Y1655551D02*
X1815511Y1653913D01*
Y1651599D01*
X1813873Y1649961D01*
X1811560D01*
X1809922Y1651599D01*
Y1653913D01*
X1811560Y1655551D01*
X1813873D01*
X1775251Y1663051D02*
X1776889Y1661413D01*
Y1659099D01*
X1775251Y1657461D01*
X1772938D01*
X1771300Y1659099D01*
Y1661413D01*
X1772938Y1663051D01*
X1775251D01*
X1769385Y1675433D02*
X1771023Y1673794D01*
Y1671481D01*
X1769385Y1669843D01*
X1767072D01*
X1765433Y1671481D01*
Y1673794D01*
X1767072Y1675433D01*
X1769385D01*
X1837599Y1797928D02*
G75*
G02*
X1844288I3344J0D01*
G01*
Y1792228D01*
G75*
G02*
X1837599I-3344J0D01*
G01*
Y1797928D01*
X1717914Y1940645D02*
G75*
G02*
X1724603I3344J0D01*
G01*
Y1934944D01*
G75*
G02*
X1717914I-3344J0D01*
G01*
Y1940645D01*
X1725914Y1945991D02*
X1736607D01*
Y1929598D01*
X1725914D01*
Y1945991D01*
X1758032Y1940645D02*
G75*
G02*
X1764721I3344J0D01*
G01*
Y1934944D01*
G75*
G02*
X1758032I-3344J0D01*
G01*
Y1940645D01*
X1786032Y1945991D02*
X1796725D01*
Y1929598D01*
X1786032D01*
Y1932312D01*
G75*
G02*
X1776378Y1933051I-4654J2632D01*
G01*
G75*
G02*
X1766032Y1934944I-5000J1893D01*
G01*
Y1940645D01*
G75*
G02*
X1776378Y1942538I5346J0D01*
G01*
G75*
G02*
X1786032Y1943277I5000J-1893D01*
G01*
Y1945991D01*
X1877102Y1652756D02*
G75*
G02*
X1888095I5497J0D01*
G01*
G75*
G02*
X1877102I-5497J0D01*
G01*
X1880000Y1684243D02*
G75*
G02*
X1892195I6098J0D01*
G01*
Y1676444D01*
G75*
G02*
X1880000I-6097J0D01*
G01*
Y1684243D01*
Y1732243D02*
G75*
G02*
X1892195I6098J0D01*
G01*
Y1724444D01*
G75*
G02*
X1880000I-6097J0D01*
G01*
Y1732243D01*
X1910630Y1795669D02*
G75*
G02*
X1911331Y1793976I-1693J-1693D01*
G01*
Y1774094D01*
G75*
G02*
X1910630Y1772402I-2394J0D01*
G01*
X1908582Y1770355D01*
G75*
G02*
X1906888Y1769654I-1693J1693D01*
G01*
X1887561D01*
G75*
G02*
X1885867Y1770355I-1J2394D01*
G01*
X1883307Y1772914D01*
G75*
G02*
X1882606Y1774606I1693J1693D01*
G01*
Y1793425D01*
G75*
G02*
X1883307Y1795118I2394J0D01*
G01*
X1886378Y1798189D01*
G75*
G02*
X1888072Y1798890I1693J-1693D01*
G01*
X1906416D01*
G75*
G02*
X1908110Y1798189I1J-2394D01*
G01*
X1910630Y1795669D01*
X1908433Y1681890D02*
G75*
G02*
X1927787I9677J0D01*
G01*
G75*
G02*
X1908433I-9677J0D01*
G01*
Y1918110D02*
G75*
G02*
X1927787I9677J0D01*
G01*
G75*
G02*
X1908433I-9677J0D01*
G01*
X1950315Y1819921D02*
G75*
G02*
X1951016Y1818228I-1693J-1693D01*
G01*
Y1776142D01*
G75*
G02*
X1950315Y1774449I-2394J0D01*
G01*
X1946220Y1770355D01*
G75*
G02*
X1944526Y1769654I-1693J1693D01*
G01*
X1929726D01*
G75*
G02*
X1928032Y1770355I-1J2394D01*
G01*
X1922756Y1775630D01*
G75*
G02*
X1922055Y1777323I1693J1693D01*
G01*
Y1819409D01*
G75*
G02*
X1922756Y1821102I2394J0D01*
G01*
X1926221Y1824567D01*
G75*
G02*
X1927915Y1825268I1693J-1693D01*
G01*
X1943975D01*
G75*
G02*
X1945669Y1824567I1J-2394D01*
G01*
X1950315Y1819921D01*
X1922918Y1718046D02*
X1941414D01*
Y1706602D01*
X1922918D01*
Y1718046D01*
X1935689Y1737731D02*
G75*
G02*
Y1726287I0J-5722D01*
G01*
X1928642D01*
G75*
G02*
Y1737731I0J5722D01*
G01*
X1935689D01*
Y1757417D02*
G75*
G02*
Y1745972I0J-5722D01*
G01*
X1928642D01*
G75*
G02*
Y1757417I0J5722D01*
G01*
X1935689D01*
X1935611Y1841121D02*
G75*
G02*
X1939331Y1837401I0J-3720D01*
G01*
G75*
G02*
X1935611Y1833680I-3720J0D01*
G01*
X1928563D01*
G75*
G02*
X1924843Y1837401I0J3720D01*
G01*
G75*
G02*
X1928563Y1841121I3720J0D01*
G01*
X1935611D01*
X1825945Y1799822D02*
G75*
G02*
X1836292Y1797928I5000J-1893D01*
G01*
Y1792228D01*
G75*
G02*
X1834323Y1788083I-5346J0D01*
G01*
Y1766736D01*
G75*
G02*
Y1766733I-1014J-2D01*
G01*
G75*
G02*
Y1766732I-765J0D01*
G01*
G75*
G02*
X1833333Y1764344I-3378J0D01*
G01*
X1821522Y1752533D01*
G75*
G02*
X1819130Y1751543I-2389J2389D01*
G01*
X1755297D01*
X1731606Y1727853D01*
Y1688523D01*
X1733025Y1687104D01*
Y1683132D01*
X1730214Y1680321D01*
X1726243D01*
X1723431Y1683132D01*
Y1687104D01*
X1724850Y1688523D01*
Y1729248D01*
G75*
G02*
Y1729251I1014J2D01*
G01*
G75*
G02*
Y1729252I765J0D01*
G01*
G75*
G02*
X1725840Y1731641I3378J0D01*
G01*
X1751509Y1757310D01*
G75*
G02*
X1753902Y1758299I2389J-2389D01*
G01*
X1817735D01*
X1827567Y1768131D01*
Y1788084D01*
G75*
G02*
X1825945Y1790334I3378J4144D01*
G01*
G75*
G02*
X1815945I-5000J1893D01*
G01*
G75*
G02*
X1805945I-5000J1893D01*
G01*
G75*
G02*
X1795945I-5000J1893D01*
G01*
G75*
G02*
X1785945I-5000J1893D01*
G01*
G75*
G02*
X1775945I-5000J1893D01*
G01*
G75*
G02*
X1765945I-5000J1893D01*
G01*
G75*
G02*
X1755945I-5000J1893D01*
G01*
G75*
G02*
X1745945I-5000J1893D01*
G01*
G75*
G02*
X1735945I-5000J1893D01*
G01*
G75*
G02*
X1725945I-5000J1893D01*
G01*
G75*
G02*
X1715945I-5000J1893D01*
G01*
G75*
G02*
X1705945I-5000J1893D01*
G01*
G75*
G02*
X1695945I-5000J1893D01*
G01*
G75*
G02*
X1685945I-5000J1893D01*
G01*
G75*
G02*
X1675945I-5000J1893D01*
G01*
G75*
G02*
X1666292Y1789595I-5000J1893D01*
G01*
Y1786881D01*
X1655599D01*
Y1803275D01*
X1666292D01*
Y1800561D01*
G75*
G02*
X1675945Y1799822I4654J-2632D01*
G01*
G75*
G02*
X1685945I5000J-1893D01*
G01*
G75*
G02*
X1695945I5000J-1893D01*
G01*
G75*
G02*
X1705945I5000J-1893D01*
G01*
G75*
G02*
X1715945I5000J-1893D01*
G01*
G75*
G02*
X1725945I5000J-1893D01*
G01*
G75*
G02*
X1735945I5000J-1893D01*
G01*
G75*
G02*
X1745945I5000J-1893D01*
G01*
G75*
G02*
X1755945I5000J-1893D01*
G01*
G75*
G02*
X1765945I5000J-1893D01*
G01*
G75*
G02*
X1775945I5000J-1893D01*
G01*
G75*
G02*
X1785945I5000J-1893D01*
G01*
G75*
G02*
X1795945I5000J-1893D01*
G01*
G75*
G02*
X1805945I5000J-1893D01*
G01*
G75*
G02*
X1815945I5000J-1893D01*
G01*
G75*
G02*
X1825945I5000J-1893D01*
G01*
X1796828Y1707002D02*
X1799639Y1704191D01*
Y1700219D01*
X1796828Y1697408D01*
X1792857D01*
X1790046Y1700219D01*
Y1704191D01*
X1792857Y1707002D01*
X1796828D01*
X1760214Y1665053D02*
X1763025Y1662242D01*
Y1658270D01*
X1760214Y1655459D01*
X1756243D01*
X1753431Y1658270D01*
Y1662242D01*
X1756243Y1665053D01*
X1760214D01*
Y1677435D02*
X1763025Y1674624D01*
Y1670652D01*
X1760214Y1667841D01*
X1756243D01*
X1753431Y1670652D01*
Y1674624D01*
X1756243Y1677435D01*
X1760214D01*
Y1689915D02*
X1763025Y1687104D01*
Y1683132D01*
X1760214Y1680321D01*
X1756243D01*
X1753431Y1683132D01*
Y1687104D01*
X1756243Y1689915D01*
X1760214D01*
Y1703065D02*
X1763025Y1700254D01*
Y1696282D01*
X1760214Y1693471D01*
X1756243D01*
X1753431Y1696282D01*
Y1700254D01*
X1756243Y1703065D01*
X1760214D01*
X1730214Y1665053D02*
X1733025Y1662242D01*
Y1658270D01*
X1730214Y1655459D01*
X1726243D01*
X1723431Y1658270D01*
Y1662242D01*
X1726243Y1665053D01*
X1730214D01*
X1672213Y1681890D02*
G75*
G02*
X1691567I9677J0D01*
G01*
G75*
G02*
X1672213I-9677J0D01*
G01*
X1655599Y1863275D02*
X1666292D01*
Y1846881D01*
X1655599D01*
Y1863275D01*
X1647714Y1652756D02*
G36*
X1647714Y1652756D02*
G75*
G03*
X1655870Y1646654I10279J5237D01*
G01*
X1943951D01*
G75*
G03*
X1952209Y1652756I-2140J11536D01*
G01*
X1888095D01*
G75*
G02*
X1877102I-5497J0D01*
G01*
X1848095D01*
G75*
G02*
X1837102I-5497J0D01*
G01*
X1827513D01*
Y1650770D01*
X1824702Y1647959D01*
X1820731D01*
X1818139Y1650551D01*
X1817598Y1651299D01*
X1817568Y1651269D01*
Y1652756D01*
X1815511D01*
Y1651599D01*
X1813873Y1649961D01*
X1811560D01*
X1809922Y1651599D01*
Y1652756D01*
X1647714D01*
G37*
X1646654Y1660256D02*
G36*
X1646654Y1660256D02*
Y1655870D01*
G75*
G03*
X1647714Y1652756I11340J2122D01*
G01*
X1809922D01*
Y1653913D01*
X1811560Y1655551D01*
X1813873D01*
X1815511Y1653913D01*
Y1652756D01*
X1817568D01*
Y1653622D01*
X1812920Y1658270D01*
Y1660256D01*
X1808891D01*
Y1658270D01*
X1806080Y1655459D01*
X1802109D01*
X1799298Y1658270D01*
Y1660256D01*
X1776889D01*
Y1659099D01*
X1775251Y1657461D01*
X1772938D01*
X1771300Y1659099D01*
Y1660256D01*
X1763025D01*
Y1658270D01*
X1760214Y1655459D01*
X1756243D01*
X1753431Y1658270D01*
Y1660256D01*
X1733025D01*
Y1658270D01*
X1730214Y1655459D01*
X1726243D01*
X1723431Y1658270D01*
Y1660256D01*
X1646654D01*
G37*
X1827513Y1652776D02*
G36*
X1827513Y1652776D02*
Y1652756D01*
X1837102D01*
G75*
G02*
X1848095I5497J0D01*
G01*
X1877102D01*
G75*
G02*
X1888095I5497J0D01*
G01*
X1952209D01*
G75*
G03*
X1953346Y1656049I-10399J5433D01*
G01*
Y1660256D01*
X1828929D01*
Y1655591D01*
G75*
G02*
X1827936Y1653198I-3381J1D01*
G01*
X1827513Y1652776D01*
G37*
X1646654Y1672344D02*
G36*
X1646654Y1672344D02*
Y1660256D01*
X1723431D01*
Y1662242D01*
X1726243Y1665053D01*
X1730214D01*
X1733025Y1662242D01*
Y1660256D01*
X1753431D01*
Y1662242D01*
X1756243Y1665053D01*
X1760214D01*
X1763025Y1662242D01*
Y1660256D01*
X1771300D01*
Y1661413D01*
X1772938Y1663051D01*
X1775251D01*
X1776889Y1661413D01*
Y1660256D01*
X1799298D01*
Y1662242D01*
X1799741Y1662685D01*
X1786894D01*
G75*
G02*
X1784501Y1663674I-4J3377D01*
G01*
X1775832Y1672344D01*
X1771023D01*
Y1671481D01*
X1769385Y1669843D01*
X1767072D01*
X1765433Y1671481D01*
Y1672344D01*
X1763025D01*
Y1670652D01*
X1760214Y1667841D01*
X1756243D01*
X1753431Y1670652D01*
Y1672344D01*
X1683477D01*
G75*
G02*
X1680302I-1587J9546D01*
G01*
X1646654D01*
G37*
X1808891Y1662242D02*
G36*
X1808891Y1662242D02*
Y1660256D01*
X1812920D01*
Y1662242D01*
X1813368Y1662690D01*
G75*
G02*
X1813189Y1662685I-179J3381D01*
G01*
X1808448D01*
X1808891Y1662242D01*
G37*
X1816268Y1672344D02*
G36*
X1816268Y1672344D02*
G75*
G02*
X1816068Y1671685I-3324J650D01*
G01*
X1823661D01*
G75*
G02*
X1826054Y1670692I-1J-3381D01*
G01*
X1827936Y1668809D01*
G75*
G02*
X1828929Y1666417I-2388J-2393D01*
G01*
Y1660256D01*
X1953346D01*
Y1672344D01*
X1919698D01*
G75*
G02*
X1916523I-1587J9546D01*
G01*
X1890611D01*
G75*
G02*
X1881585I-4513J4101D01*
G01*
X1868695D01*
Y1668444D01*
G75*
G02*
X1856500I-6097J0D01*
G01*
Y1672344D01*
X1843611D01*
G75*
G02*
X1834585I-4513J4101D01*
G01*
X1816268D01*
G37*
X1646654Y1681890D02*
G36*
X1646654Y1681890D02*
Y1672344D01*
X1680302D01*
G75*
G02*
X1672213Y1681890I1587J9546D01*
G01*
X1646654D01*
G37*
X1691567D02*
G36*
X1691567Y1681890D02*
G75*
G02*
X1683477Y1672344I-9677J0D01*
G01*
X1753431D01*
Y1674624D01*
X1756243Y1677435D01*
X1760214D01*
X1763025Y1674624D01*
Y1672344D01*
X1765433D01*
Y1673794D01*
X1767072Y1675433D01*
X1769385D01*
X1771023Y1673794D01*
Y1672344D01*
X1775832D01*
X1766286Y1681890D01*
X1761783D01*
X1760214Y1680321D01*
X1756243D01*
X1754674Y1681890D01*
X1731783D01*
X1730214Y1680321D01*
X1726243D01*
X1724674Y1681890D01*
X1691567D01*
G37*
X1775840D02*
G36*
X1775840Y1681890D02*
X1779646Y1678084D01*
Y1679081D01*
X1782455Y1681890D01*
X1775840D01*
G37*
X1816331Y1672992D02*
G36*
X1816331Y1672992D02*
G75*
G02*
X1816268Y1672344I-3387J2D01*
G01*
X1834585D01*
G75*
G02*
X1833000Y1676444I4513J4100D01*
G01*
Y1681890D01*
X1816331D01*
Y1672996D01*
Y1672993D01*
Y1672992D01*
G37*
X1845195Y1676444D02*
G36*
X1845195Y1676444D02*
G75*
G02*
X1843611Y1672344I-6097J0D01*
G01*
X1856500D01*
Y1676243D01*
Y1676244D01*
G75*
G02*
X1860296Y1681890I6097J0D01*
G01*
X1845195D01*
Y1676444D01*
G37*
X1868695Y1676243D02*
G36*
X1868695Y1676243D02*
Y1672344D01*
X1881585D01*
G75*
G02*
X1880000Y1676444I4513J4100D01*
G01*
Y1681890D01*
X1864900D01*
G75*
G02*
X1868695Y1676244I-2302J-5646D01*
G01*
Y1676243D01*
G37*
X1892195Y1676444D02*
G36*
X1892195Y1676444D02*
G75*
G02*
X1890611Y1672344I-6097J0D01*
G01*
X1916523D01*
G75*
G02*
X1908433Y1681890I1587J9546D01*
G01*
X1892195D01*
Y1676444D01*
G37*
X1927787Y1681890D02*
G36*
X1927787Y1681890D02*
G75*
G02*
X1919698Y1672344I-9677J0D01*
G01*
X1953346D01*
Y1681890D01*
X1927787D01*
G37*
X1646654Y1702205D02*
G36*
X1646654Y1702205D02*
Y1681890D01*
X1672213D01*
G75*
G02*
X1691567I9677J0D01*
G01*
X1724674D01*
X1723431Y1683132D01*
Y1687104D01*
X1724850Y1688523D01*
Y1702205D01*
X1646654D01*
G37*
X1731606D02*
G36*
X1731606Y1702205D02*
Y1688523D01*
X1733025Y1687104D01*
Y1683132D01*
X1731783Y1681890D01*
X1754674D01*
X1753431Y1683132D01*
Y1687104D01*
X1756243Y1689915D01*
X1760214D01*
X1763025Y1687104D01*
Y1683132D01*
X1761783Y1681890D01*
X1766286D01*
X1765840Y1682336D01*
G75*
G02*
X1764850Y1684724I2389J2389D01*
G01*
Y1684725D01*
Y1684728D01*
Y1694863D01*
X1763431Y1696282D01*
Y1700254D01*
X1765383Y1702205D01*
X1761074D01*
X1763025Y1700254D01*
Y1696282D01*
X1760214Y1693471D01*
X1756243D01*
X1753431Y1696282D01*
Y1700254D01*
X1755383Y1702205D01*
X1731606D01*
G37*
X1771606Y1694863D02*
G36*
X1771606Y1694863D02*
Y1686124D01*
X1775840Y1681890D01*
X1782455D01*
X1782494Y1681929D01*
X1779646Y1684778D01*
Y1689081D01*
X1782691Y1692126D01*
X1786994D01*
X1789843Y1689278D01*
X1792691Y1692126D01*
X1796994D01*
X1799646Y1689474D01*
Y1692125D01*
X1809575D01*
Y1702205D01*
X1799639D01*
Y1700219D01*
X1796828Y1697408D01*
X1792857D01*
X1790046Y1700219D01*
Y1702205D01*
X1771074D01*
X1773025Y1700254D01*
Y1696282D01*
X1771606Y1694863D01*
G37*
X1816331Y1702205D02*
G36*
X1816331Y1702205D02*
Y1681890D01*
X1833000D01*
Y1684243D01*
Y1684244D01*
G75*
G02*
X1845195I6098J0D01*
G01*
Y1684243D01*
Y1681890D01*
X1860296D01*
G75*
G02*
X1864900I2302J-5646D01*
G01*
X1880000D01*
Y1684243D01*
Y1684244D01*
G75*
G02*
X1892195I6098J0D01*
G01*
Y1684243D01*
Y1681890D01*
X1908433D01*
G75*
G02*
X1927787I9677J0D01*
G01*
X1953346D01*
Y1702205D01*
X1829639D01*
Y1700219D01*
X1826828Y1697408D01*
X1822857D01*
X1820046Y1700219D01*
Y1702205D01*
X1816331D01*
G37*
X1646654Y1712324D02*
G36*
X1646654Y1712324D02*
Y1702205D01*
X1724850D01*
Y1712324D01*
X1646654D01*
G37*
X1731606D02*
G36*
X1731606Y1712324D02*
Y1702205D01*
X1755383D01*
X1756243Y1703065D01*
X1760214D01*
X1761074Y1702205D01*
X1765383D01*
X1766243Y1703065D01*
X1770214D01*
X1771074Y1702205D01*
X1790046D01*
Y1704191D01*
X1792857Y1707002D01*
X1796828D01*
X1799639Y1704191D01*
Y1702205D01*
X1809575D01*
Y1706220D01*
G75*
G02*
X1810568Y1708613I3381J-1D01*
G01*
X1813395Y1711440D01*
G75*
G02*
X1814937Y1712324I2393J-2387D01*
G01*
X1731606D01*
G37*
X1816331Y1704821D02*
G36*
X1816331Y1704821D02*
Y1702205D01*
X1820046D01*
Y1704191D01*
X1821532Y1705677D01*
X1817187D01*
X1816331Y1704821D01*
G37*
X1829396Y1706667D02*
G36*
X1829396Y1706667D02*
G75*
G02*
X1828003Y1705827I-2391J2394D01*
G01*
X1829639Y1704191D01*
Y1702205D01*
X1953346D01*
Y1712324D01*
X1941414D01*
Y1706602D01*
X1922918D01*
Y1712324D01*
X1832551D01*
Y1711224D01*
Y1711221D01*
Y1711220D01*
G75*
G02*
X1831562Y1708832I-3378J0D01*
G01*
X1829396Y1706667D01*
G37*
X1646654Y1728344D02*
G36*
X1646654Y1728344D02*
Y1712324D01*
X1724850D01*
Y1728344D01*
X1646654D01*
G37*
X1731606Y1727853D02*
G36*
X1731606Y1727853D02*
Y1712324D01*
X1814937D01*
G75*
G02*
X1815787Y1712433I852J-3272D01*
G01*
X1825609D01*
X1825795Y1712620D01*
Y1728344D01*
X1732097D01*
X1731606Y1727853D01*
G37*
X1832551Y1728344D02*
G36*
X1832551Y1728344D02*
Y1712324D01*
X1922918D01*
Y1718046D01*
X1941414D01*
Y1712324D01*
X1953346D01*
Y1728344D01*
X1940084D01*
G75*
G02*
X1935689Y1726287I-4394J3665D01*
G01*
X1928642D01*
G75*
G02*
X1924248Y1728344I0J5722D01*
G01*
X1892195D01*
Y1724444D01*
G75*
G02*
X1880000I-6097J0D01*
G01*
Y1728344D01*
X1845195D01*
Y1724444D01*
G75*
G02*
X1833000I-6097J0D01*
G01*
Y1728344D01*
X1832551D01*
G37*
X1646654Y1751694D02*
G36*
X1646654Y1751694D02*
Y1728344D01*
X1724850D01*
Y1729248D01*
Y1729251D01*
Y1729252D01*
G75*
G02*
X1725840Y1731641I3378J0D01*
G01*
X1745893Y1751694D01*
X1646654D01*
G37*
X1755297Y1751543D02*
G36*
X1755297Y1751543D02*
X1732097Y1728344D01*
X1825795D01*
Y1751694D01*
X1820132D01*
G75*
G02*
X1819130Y1751543I-998J3226D01*
G01*
X1755297D01*
G37*
X1832551Y1750372D02*
G36*
X1832551Y1750372D02*
Y1728344D01*
X1833000D01*
Y1732243D01*
Y1732244D01*
G75*
G02*
X1845195I6098J0D01*
G01*
Y1732243D01*
Y1728344D01*
X1880000D01*
Y1732243D01*
Y1732244D01*
G75*
G02*
X1892195I6098J0D01*
G01*
Y1732243D01*
Y1728344D01*
X1924248D01*
G75*
G02*
X1922920Y1732009I4394J3665D01*
G01*
G75*
G02*
X1928642Y1737731I5722J0D01*
G01*
X1935689D01*
G75*
G02*
X1941412Y1732009I0J-5722D01*
G01*
G75*
G02*
X1940084Y1728344I-5722J0D01*
G01*
X1953346D01*
Y1751694D01*
X1941412D01*
G75*
G02*
X1935689Y1745972I-5722J0D01*
G01*
X1928642D01*
G75*
G02*
X1922920Y1751694I0J5722D01*
G01*
X1833873D01*
X1832551Y1750372D01*
G37*
X1646654Y1795078D02*
G36*
X1646654Y1795078D02*
Y1751694D01*
X1745893D01*
X1751509Y1757310D01*
G75*
G02*
X1753902Y1758299I2388J-2387D01*
G01*
X1817735D01*
X1827567Y1768131D01*
Y1788084D01*
G75*
G02*
X1825945Y1790334I3374J4141D01*
G01*
G75*
G02*
X1815945I-5000J1893D01*
G01*
G75*
G02*
X1805945I-5000J1893D01*
G01*
G75*
G02*
X1795945I-5000J1893D01*
G01*
G75*
G02*
X1785945I-5000J1893D01*
G01*
G75*
G02*
X1775945I-5000J1893D01*
G01*
G75*
G02*
X1765945I-5000J1893D01*
G01*
G75*
G02*
X1755945I-5000J1893D01*
G01*
G75*
G02*
X1745945I-5000J1893D01*
G01*
G75*
G02*
X1735945I-5000J1893D01*
G01*
G75*
G02*
X1725945I-5000J1893D01*
G01*
G75*
G02*
X1715945I-5000J1893D01*
G01*
G75*
G02*
X1705945I-5000J1893D01*
G01*
G75*
G02*
X1695945I-5000J1893D01*
G01*
G75*
G02*
X1685945I-5000J1893D01*
G01*
G75*
G02*
X1675945I-5000J1893D01*
G01*
G75*
G02*
X1666292Y1789595I-5000J1894D01*
G01*
Y1786881D01*
X1655599D01*
Y1795078D01*
X1646654D01*
G37*
X1821522Y1752533D02*
G36*
X1821522Y1752533D02*
G75*
G02*
X1820132Y1751694I-2388J2387D01*
G01*
X1825795D01*
Y1751768D01*
Y1751771D01*
Y1751772D01*
G75*
G02*
X1826785Y1754160I3378J0D01*
G01*
X1841430Y1768806D01*
G75*
G02*
X1843823Y1769795I2388J-2387D01*
G01*
X1864743D01*
X1868551Y1773604D01*
Y1795078D01*
X1856292D01*
Y1792228D01*
G75*
G02*
X1845599I-5346J0D01*
G01*
Y1795078D01*
X1844288D01*
Y1792228D01*
G75*
G02*
X1837599I-3344J0D01*
G01*
Y1795078D01*
X1836292D01*
Y1792228D01*
G75*
G02*
X1834323Y1788083I-5348J0D01*
G01*
Y1766736D01*
Y1766733D01*
Y1766732D01*
G75*
G02*
X1833333Y1764344I-3378J0D01*
G01*
X1821522Y1752533D01*
G37*
X1845218Y1763039D02*
G36*
X1845218Y1763039D02*
X1833873Y1751694D01*
X1922920D01*
G75*
G02*
X1928642Y1757417I5722J0D01*
G01*
X1935689D01*
G75*
G02*
X1941412Y1751694I0J-5722D01*
G01*
X1953346D01*
Y1795078D01*
X1951016D01*
Y1776142D01*
G75*
G02*
X1950315Y1774449I-2393J0D01*
G01*
X1946220Y1770355D01*
G75*
G02*
X1944526Y1769654I-1692J1691D01*
G01*
X1929726D01*
G75*
G02*
X1928032Y1770355I-2J2393D01*
G01*
X1922756Y1775630D01*
G75*
G02*
X1922055Y1777323I1692J1693D01*
G01*
Y1795078D01*
X1911062D01*
G75*
G02*
X1911331Y1793976I-2125J-1102D01*
G01*
Y1774094D01*
G75*
G02*
X1910630Y1772402I-2393J0D01*
G01*
X1908582Y1770355D01*
G75*
G02*
X1906888Y1769654I-1692J1691D01*
G01*
X1887561D01*
G75*
G02*
X1885867Y1770355I-2J2393D01*
G01*
X1883307Y1772914D01*
G75*
G02*
X1882606Y1774606I1692J1693D01*
G01*
Y1793425D01*
G75*
G02*
X1883269Y1795078I2393J0D01*
G01*
X1875307D01*
Y1772209D01*
Y1772206D01*
Y1772205D01*
G75*
G02*
X1874318Y1769816I-3378J0D01*
G01*
X1868530Y1764029D01*
G75*
G02*
X1866138Y1763039I-2388J2387D01*
G01*
X1845218D01*
G37*
X1646654Y1837401D02*
G36*
X1646654Y1837401D02*
Y1795078D01*
X1655599D01*
Y1803275D01*
X1666292D01*
Y1800561D01*
G75*
G02*
X1675945Y1799822I4654J-2633D01*
G01*
G75*
G02*
X1685945I5000J-1893D01*
G01*
G75*
G02*
X1695945I5000J-1893D01*
G01*
G75*
G02*
X1705945I5000J-1893D01*
G01*
G75*
G02*
X1715945I5000J-1893D01*
G01*
G75*
G02*
X1725945I5000J-1893D01*
G01*
G75*
G02*
X1735945I5000J-1893D01*
G01*
G75*
G02*
X1745945I5000J-1893D01*
G01*
G75*
G02*
X1755945I5000J-1893D01*
G01*
G75*
G02*
X1765945I5000J-1893D01*
G01*
G75*
G02*
X1775945I5000J-1893D01*
G01*
G75*
G02*
X1785945I5000J-1893D01*
G01*
G75*
G02*
X1795945I5000J-1893D01*
G01*
G75*
G02*
X1805945I5000J-1893D01*
G01*
G75*
G02*
X1815945I5000J-1893D01*
G01*
G75*
G02*
X1825945I5000J-1893D01*
G01*
G75*
G02*
X1836292Y1797928I5000J-1893D01*
G01*
Y1795078D01*
X1837599D01*
Y1797928D01*
G75*
G02*
X1844288I3344J0D01*
G01*
Y1795078D01*
X1845599D01*
Y1797928D01*
G75*
G02*
Y1797929I6445J0D01*
G01*
G75*
G02*
X1846386Y1800720I5344J0D01*
G01*
Y1815080D01*
X1844529Y1816937D01*
X1686894D01*
G75*
G02*
X1683666Y1818272I-3J4561D01*
G01*
X1677721Y1824217D01*
G75*
G02*
X1676386Y1827441I3226J3225D01*
G01*
Y1837401D01*
X1646654D01*
G37*
X1685504D02*
G36*
X1685504Y1837401D02*
Y1829330D01*
X1688778Y1826055D01*
X1846417D01*
G75*
G02*
X1849645Y1824716I0J-4559D01*
G01*
X1854165Y1820196D01*
G75*
G02*
X1855504Y1816969I-3220J-3228D01*
G01*
Y1800722D01*
G75*
G02*
X1856292Y1797928I-4560J-2794D01*
G01*
Y1795078D01*
X1868551D01*
Y1834506D01*
X1865657Y1837401D01*
X1685504D01*
G37*
X1875307Y1835906D02*
G36*
X1875307Y1835906D02*
Y1795078D01*
X1883269D01*
G75*
G02*
X1883307Y1795118I1731J-1658D01*
G01*
X1886378Y1798189D01*
G75*
G02*
X1888072Y1798890I1692J-1691D01*
G01*
X1906416D01*
G75*
G02*
X1908110Y1798189I2J-2393D01*
G01*
X1910630Y1795669D01*
G75*
G02*
X1911062Y1795078I-1692J-1693D01*
G01*
X1922055D01*
Y1819409D01*
G75*
G02*
X1922756Y1821102I2393J0D01*
G01*
X1926221Y1824567D01*
G75*
G02*
X1927915Y1825268I1692J-1691D01*
G01*
X1943975D01*
G75*
G02*
X1945669Y1824567I2J-2393D01*
G01*
X1950315Y1819921D01*
G75*
G02*
X1951016Y1818228I-1692J-1693D01*
G01*
Y1795078D01*
X1953346D01*
Y1837401D01*
X1939331D01*
G75*
G02*
X1935611Y1833680I-3720J0D01*
G01*
X1928563D01*
G75*
G02*
X1924843Y1837401I0J3720D01*
G01*
X1874958D01*
G75*
G02*
X1875307Y1835906I-3031J-1496D01*
G01*
G37*
X1646654Y1855078D02*
G36*
X1646654Y1855078D02*
Y1837401D01*
X1676386D01*
Y1849435D01*
G75*
G02*
X1675599Y1852227I4557J2791D01*
G01*
G75*
G02*
Y1852228I6445J0D01*
G01*
Y1855078D01*
X1674288D01*
Y1852228D01*
G75*
G02*
X1667599I-3344J0D01*
G01*
Y1855078D01*
X1666292D01*
Y1846881D01*
X1655599D01*
Y1855078D01*
X1646654D01*
G37*
X1685504Y1849434D02*
G36*
X1685504Y1849434D02*
Y1837401D01*
X1865657D01*
X1865412Y1837646D01*
X1845634D01*
G75*
G02*
X1843241Y1838635I-4J3377D01*
G01*
X1838556Y1843320D01*
G75*
G02*
X1837567Y1845709I2389J2389D01*
G01*
Y1845709D01*
Y1845713D01*
Y1848084D01*
G75*
G02*
X1835945Y1850334I3374J4141D01*
G01*
G75*
G02*
X1825945I-5000J1893D01*
G01*
G75*
G02*
X1815945I-5000J1893D01*
G01*
G75*
G02*
X1805945I-5000J1893D01*
G01*
G75*
G02*
X1795945I-5000J1893D01*
G01*
G75*
G02*
X1785945I-5000J1893D01*
G01*
G75*
G02*
X1775945I-5000J1893D01*
G01*
G75*
G02*
X1765945I-5000J1893D01*
G01*
G75*
G02*
X1755945I-5000J1893D01*
G01*
G75*
G02*
X1745945I-5000J1893D01*
G01*
G75*
G02*
X1735945I-5000J1893D01*
G01*
G75*
G02*
X1725945I-5000J1893D01*
G01*
G75*
G02*
X1715945I-5000J1893D01*
G01*
G75*
G02*
X1705945I-5000J1893D01*
G01*
G75*
G02*
X1695945I-5000J1893D01*
G01*
G75*
G02*
X1685945I-5000J1893D01*
G01*
G75*
G02*
X1685504Y1849434I-5026J1906D01*
G01*
G37*
X1844323Y1848083D02*
G36*
X1844323Y1848083D02*
Y1847108D01*
X1847029Y1844402D01*
X1866811D01*
G75*
G02*
X1869203Y1843409I-1J-3381D01*
G01*
X1874314Y1838298D01*
G75*
G02*
X1874958Y1837401I-2388J-2393D01*
G01*
X1924843D01*
G75*
G02*
X1928563Y1841121I3720J0D01*
G01*
X1935611D01*
G75*
G02*
X1939331Y1837401I0J-3720D01*
G01*
X1953346D01*
Y1855078D01*
X1856292D01*
Y1852228D01*
G75*
G02*
X1845945Y1850334I-5346J0D01*
G01*
G75*
G02*
X1844323Y1848083I-5000J1893D01*
G01*
G37*
X1646654Y1918110D02*
G36*
X1646654Y1918110D02*
Y1855078D01*
X1655599D01*
Y1863275D01*
X1666292D01*
Y1855078D01*
X1667599D01*
Y1857928D01*
G75*
G02*
X1674288I3344J0D01*
G01*
Y1855078D01*
X1675599D01*
Y1857928D01*
G75*
G02*
X1685945Y1859822I5346J0D01*
G01*
G75*
G02*
X1695945I5000J-1893D01*
G01*
G75*
G02*
X1705945I5000J-1893D01*
G01*
G75*
G02*
X1715945I5000J-1893D01*
G01*
G75*
G02*
X1717567Y1862072I4996J-1891D01*
G01*
Y1912065D01*
X1711522Y1918110D01*
X1691567D01*
G75*
G02*
X1672213I-9677J0D01*
G01*
X1646654D01*
G37*
X1721076D02*
G36*
X1721076Y1918110D02*
X1723333Y1915853D01*
G75*
G02*
X1724323Y1913465I-2389J-2389D01*
G01*
Y1913464D01*
Y1913461D01*
Y1862073D01*
G75*
G02*
X1725945Y1859822I-3377J-4144D01*
G01*
G75*
G02*
X1735945I5000J-1893D01*
G01*
G75*
G02*
X1745945I5000J-1893D01*
G01*
G75*
G02*
X1755945I5000J-1893D01*
G01*
G75*
G02*
X1765945I5000J-1893D01*
G01*
G75*
G02*
X1775945I5000J-1893D01*
G01*
G75*
G02*
X1785945I5000J-1893D01*
G01*
G75*
G02*
X1795945I5000J-1893D01*
G01*
G75*
G02*
X1805945I5000J-1893D01*
G01*
G75*
G02*
X1815945I5000J-1893D01*
G01*
G75*
G02*
X1825945I5000J-1893D01*
G01*
G75*
G02*
X1835945I5000J-1893D01*
G01*
G75*
G02*
X1845945I5000J-1893D01*
G01*
G75*
G02*
X1856292Y1857928I5000J-1893D01*
G01*
Y1855078D01*
X1953346D01*
Y1918110D01*
X1927787D01*
G75*
G02*
X1908433I-9677J0D01*
G01*
X1721076D01*
G37*
X1646654Y1937794D02*
G36*
X1646654Y1937794D02*
Y1918110D01*
X1672213D01*
G75*
G02*
X1691567I9677J0D01*
G01*
X1711522D01*
X1708871Y1920761D01*
G75*
G02*
X1707882Y1923150I2389J2389D01*
G01*
Y1923150D01*
Y1923154D01*
Y1930800D01*
G75*
G02*
X1705914Y1934944I3377J4143D01*
G01*
Y1934944D01*
Y1937794D01*
X1646654D01*
G37*
X1714638Y1930800D02*
G36*
X1714638Y1930800D02*
Y1924549D01*
X1721076Y1918110D01*
X1908433D01*
G75*
G02*
X1927787I9677J0D01*
G01*
X1953346D01*
Y1937794D01*
X1796725D01*
Y1929598D01*
X1786032D01*
Y1932312D01*
G75*
G02*
X1776378Y1933051I-4654J2633D01*
G01*
G75*
G02*
X1766032Y1934944I-5000J1893D01*
G01*
Y1937794D01*
X1764721D01*
Y1934944D01*
G75*
G02*
X1758032I-3344J0D01*
G01*
Y1937794D01*
X1736607D01*
Y1929598D01*
X1725914D01*
Y1937794D01*
X1724603D01*
Y1934944D01*
G75*
G02*
X1717914I-3344J0D01*
G01*
Y1937794D01*
X1716607D01*
Y1934944D01*
G75*
G02*
X1714638Y1930800I-5348J0D01*
G01*
G37*
X1646654Y1943880D02*
G36*
X1646654Y1943880D02*
Y1937794D01*
X1705914D01*
Y1940645D01*
G75*
G02*
X1716607I5346J0D01*
G01*
Y1937794D01*
X1717914D01*
Y1940645D01*
G75*
G02*
X1724603I3344J0D01*
G01*
Y1937794D01*
X1725914D01*
Y1945991D01*
X1736607D01*
Y1937794D01*
X1758032D01*
Y1940645D01*
G75*
G02*
X1764721I3344J0D01*
G01*
Y1937794D01*
X1766032D01*
Y1940645D01*
G75*
G02*
X1776378Y1942538I5346J0D01*
G01*
G75*
G02*
X1786032Y1943277I5000J-1894D01*
G01*
Y1945991D01*
X1796725D01*
Y1937794D01*
X1953346D01*
Y1943915D01*
G75*
G03*
X1943915Y1953346I-11575J-2144D01*
G01*
X1656120D01*
G75*
G03*
X1646654Y1943880I2147J-11614D01*
G01*
G37*
X1885000Y1774606D02*
X1887559Y1772047D01*
X1906890D01*
X1908937Y1774094D01*
Y1793976D01*
X1906417Y1796496D01*
X1888071D01*
X1885000Y1793425D01*
Y1774606D01*
G36*
X1885000Y1774606D02*
X1887559Y1772047D01*
X1906890D01*
X1908937Y1774094D01*
Y1793976D01*
X1906417Y1796496D01*
X1888071D01*
X1885000Y1793425D01*
Y1774606D01*
G37*
X1924449Y1777323D02*
X1929724Y1772047D01*
X1944528D01*
X1948622Y1776142D01*
Y1818228D01*
X1943976Y1822874D01*
X1927913D01*
X1924449Y1819409D01*
Y1777323D01*
G36*
X1924449Y1777323D02*
X1929724Y1772047D01*
X1944528D01*
X1948622Y1776142D01*
Y1818228D01*
X1943976Y1822874D01*
X1927913D01*
X1924449Y1819409D01*
Y1777323D01*
G37*
D02*
D70*
X1711260Y1937795D02*
Y1923150D01*
X1720945Y1913465D01*
Y1855079D01*
X1728228Y1685118D02*
Y1729252D01*
X1753898Y1754921D01*
X1819134D01*
X1830945Y1766732D01*
Y1795079D01*
X1768228Y1698268D02*
Y1684724D01*
X1786890Y1666063D01*
X1813189D01*
X1815433Y1668307D01*
X1823661D01*
X1825551Y1666417D01*
Y1655591D01*
X1822717Y1652756D01*
X1840945Y1855079D02*
Y1845709D01*
X1845630Y1841024D01*
X1866811D01*
X1871929Y1835906D01*
Y1772205D01*
X1866142Y1766417D01*
X1843819D01*
X1829173Y1751772D01*
Y1711220D01*
X1827008Y1709055D01*
X1815787D01*
X1812953Y1706220D01*
Y1672992D01*
X1810000Y1670039D01*
X1791732D01*
X1784843Y1676929D01*
D02*
D71*
X1850945Y1795079D02*
Y1816969D01*
X1846417Y1821496D01*
X1686890D01*
X1680945Y1827441D01*
Y1855079D01*
D02*
D20*
X1681890Y1681890D03*
Y1918110D03*
X1918110Y1681890D03*
Y1918110D03*
D02*
D21*
X1892520Y1784252D03*
D02*
D22*
X1660945Y1795079D03*
Y1855079D03*
X1731260Y1937795D03*
X1791378D03*
D02*
D23*
X1670945Y1795079D03*
Y1855079D03*
X1680945Y1795079D03*
Y1855079D03*
X1690945Y1795079D03*
Y1855079D03*
X1700945Y1795079D03*
Y1855079D03*
X1710945Y1795079D03*
Y1855079D03*
X1711260Y1937795D03*
X1720945Y1795079D03*
Y1855079D03*
X1721260Y1937795D03*
X1730945Y1795079D03*
Y1855079D03*
X1740945Y1795079D03*
Y1855079D03*
X1750945Y1795079D03*
Y1855079D03*
X1760945Y1795079D03*
Y1855079D03*
X1761378Y1937795D03*
X1770945Y1795079D03*
Y1855079D03*
X1771378Y1937795D03*
X1780945Y1795079D03*
Y1855079D03*
X1781378Y1937795D03*
X1790945Y1795079D03*
Y1855079D03*
X1800945Y1795079D03*
Y1855079D03*
X1810945Y1795079D03*
Y1855079D03*
X1820945Y1795079D03*
Y1855079D03*
X1830945Y1795079D03*
Y1855079D03*
X1840945Y1795079D03*
Y1855079D03*
X1850945Y1795079D03*
Y1855079D03*
D02*
D24*
X1728228Y1660256D03*
Y1685118D03*
X1758228Y1660256D03*
Y1672638D03*
Y1685118D03*
Y1698268D03*
X1768228Y1672638D03*
Y1698268D03*
X1774094Y1660256D03*
X1794843Y1702205D03*
X1804094Y1660256D03*
X1812717Y1652756D03*
X1817717Y1660256D03*
X1822717Y1652756D03*
X1824843Y1702205D03*
D02*
D25*
X1842598Y1652756D03*
X1882598D03*
D02*
D26*
X1932165Y1712323D03*
D02*
D27*
X1932087Y1817717D03*
Y1837402D03*
X1932165Y1732008D03*
Y1751693D03*
D02*
D28*
X1839098Y1680343D03*
Y1728343D03*
X1862598Y1672343D03*
X1886098Y1680343D03*
Y1728343D03*
D02*
D29*
X1902888Y1784252D03*
X1932088D03*
D02*
D72*
X1804843Y1686929D03*
D02*
D73*
X1784843Y1676929D03*
Y1686929D03*
X1794843Y1676929D03*
Y1686929D03*
X1804843Y1676929D03*
X0Y0D02*
M02*
